<?xml version="1.0" encoding="UTF-8"?>
<svg id="Layer_1" data-name="Layer 1" xmlns="http://www.w3.org/2000/svg" viewBox="0 0 595.28 170.21">
  <defs>
    <style>
      .cls-1 {
        fill: #fbf2cb;
      }
    </style>
  </defs>
  <g>
    <path class="cls-1" d="M56.49,38.92c-1.07-.16-2.25-.28-3.55-.28l-7.93.12c-1.62,0-2.92-.04-3.91-.12-.2-.04-.47-.08-.75-.08-1.26,0-1.89,1.34-1.89,4.03,0,2.53.36,4.18,1.07,5.01.71.83,1.7,1.22,2.96,1.22l1.46-.12c.87,0,1.54.16,2.01.47.51.32.87.95,1.07,1.86.24,1.26.43,2.76.71,4.5.24,1.74.39,3.08.47,3.99,0,3.12-.63,5.05-1.82,5.8l-5.92.12c-3.55,0-7.78-.28-12.71-.83-.79-.16-1.93-.28-3.51-.43-4.42-.71-7.74-3.32-9.95-7.86-2.17-4.5-3.28-9.51-3.28-15.04,0-6.71,1.18-12.36,3.59-17.05,2.41-4.66,6.47-8.13,12.2-10.46,2.25-.91,4.07-1.58,5.41-2.01,1.34-.43,2.76-.63,4.34-.63,2.09,0,5.13.39,9.08,1.26,3.83.91,6.95,1.38,9.32,1.38,1.34,0,2.01-1.58,2.01-4.78,0-1.7-.16-2.61-.47-2.68-.32-.12-.47-.36-.47-.71l.12-.32c-.55-.39-1.38-.83-2.37-1.22-1.03-.36-1.62-.59-1.78-.67-.12,0-.51,0-1.11.04-.59.04-.99-.24-1.1-.79h-3.71c0-1.42-2.64-2.09-7.93-2.09-7.78,0-14.57,1.22-20.33,3.75-5.8,2.49-10.66,6.71-14.53,12.63-.63.99-1.14,2.92-1.58,5.72-.08.24-.16.63-.28,1.26-.08.67-.28,1.42-.51,2.29-.24.87-.55,1.54-.91,1.97v14.29c.43.99.63,2.09.63,3.28l-.12,3.08c0,.63.04,1.11.12,1.46.16,1.5,1.89,4.78,5.29,9.87,2.21,3.24,3.28,5.17,3.28,5.8.24-.2.47-.36.75-.47.28-.08.59-.16.87-.16.36,0,1.82,1.07,4.42,3.2,2.64,2.13,3.87,3.24,3.71,3.39,1.34.99,3.04,1.62,5.05,1.93,2.01.32,4.5.47,7.46.47h3.16c2.68,0,4.86-.08,6.51-.32,1.66-.2,2.96-.71,3.87-1.46.24,0,.55.12,1.07.36.51.24.91.39,1.26.39,2.84,0,5.33-.59,7.54-1.7,2.17-1.14,3.28-3,3.28-5.64v-26.05c0-.47-.55-.83-1.66-.99ZM50.76,7.93c.55-.47.91-.79,1.14-.95.12,0,.51.39,1.11,1.11.59.75.91,1.38.91,1.86-.16,0-.79.04-1.86.08-1.11.04-1.86-.28-2.29-.91.12-.28.47-.67.99-1.18ZM43.11,5.92c.2.24.39.55.51.99.16.39.24.75.24,1.03h-1.62c0-1.11.32-1.78.87-2.01ZM39.91,4.54c0,.79-.24,1.26-.71,1.38l-.63-1.38h1.34ZM35.25,4.54c.51.32.87.79,1.07,1.46.24.67.32,1.07.32,1.18h-2.09c0-1.03.24-1.93.71-2.64ZM32.72,3.91c0,.51-.08,1.11-.2,1.78-.16.67-.39.99-.75.99-.24,0-.59-.32-1.11-.99-.55-.67-.79-1.26-.79-1.78h2.84ZM28.07,4.54l.32-.08c.71,0,1.07.87,1.07,2.64v.51c0,.63-.28,1.18-.87,1.66-.55.43-1.14.67-1.78.67.04-.47.24-1.26.47-2.33.24-1.07.51-2.09.79-3.08ZM26.8,3.91c0,1.14-.47,2.49-1.38,4.03-.2-.12-.63-.43-1.26-.83-.63-.43-1.11-.83-1.38-1.18.55-.75,1.89-1.42,4.03-2.01ZM25.42,9.87c-.63.91-1.42,1.34-2.33,1.34-.63,0-.95-1.14-.95-3.47,1.07,0,2.13.71,3.28,2.13ZM4.15,22.9c1.18-3.04,2.01-4.78,2.41-5.21.36-.55,1.03-1.34,2.01-2.37.99-1.03,1.62-1.54,1.82-1.54h3.71c0-.08.04-.16.16-.28.12-.12.16-.2.16-.28,0-.04-.39-.2-1.18-.39-.75-.24-1.14-.36-1.14-.43,0-.43,1.18-1.54,3.59-3.28.63.47,1.07,1.14,1.26,2.01.43-1.34.83-2.33,1.22-2.96.39-.67,1.07-1.18,2.05-1.62l.75,3.32-.75.63-2.01-1.38-.08.39c.39.36.75.87,1.07,1.54.28.67.39,1.18.39,1.46s-.04.51-.08.71c-.08.24-.28.39-.55.55-.55-.28-.99-.95-1.26-2.01-.08.2-.2.67-.43,1.42-.2.75-.47,1.46-.83,2.17-.36.71-.87,1.07-1.5,1.07-.55,0-.99-.16-1.3-.43-.32-.28-.79-.79-1.34-1.58,0,.08.04.28.12.63.08.36.12.75.12,1.18,0,.91-.28,1.38-.75,1.46.28.43.91.91,1.89,1.38-.08.16-.28.63-.63,1.5-.36.83-.79,1.38-1.26,1.66l-2.01-2.01-.12,1.07c0,.36.16.79.43,1.34.28.51.43.99.43,1.42,0,.36-.32.59-.91.75-.59.12-.91.36-.91.63s.16.75.51,1.38c-.2,0-.59-.12-1.14-.32-.55-.24-.95-.32-1.18-.32h-.32c.51.36.99.83,1.38,1.42.43.59.63,1.18.63,1.74H3.91c-.99,0-1.46-.63-1.46-1.89,0-.2.55-1.74,1.7-4.54ZM18.75,67.46c-1.54,0-3-.51-4.3-1.58-1.3-1.07-2.76-2.57-4.38-4.58-1.7-1.89-2.68-2.96-2.96-3.16l.08-.32c0-.08-.4-.51-1.18-1.26-.83-.79-1.3-1.34-1.46-1.7-.04-.16-.16-.67-.32-1.54-.12-.91-.43-1.46-.95-1.74l.12-4.03c0-.79-.16-1.5-.47-2.17-.32-.67-.47-1.18-.47-1.54,0-.59.2-.95.55-1.18.4-.2.91-.39,1.54-.51.63-.16,1.07-.43,1.3-.87-.36.08-.83.12-1.38.12-.71,0-1.18-.12-1.46-.32-.24-.2-.36-.55-.36-1.07,0-.36.04-.71.12-1.07.08-.36.08-.67.08-1.07,0-.67-.32-1.07-.95-1.14v-5.41c0-.55,1.5-.83,4.46-.83,0,.47.12.87.36,1.22.28.32.63.63,1.14.99l.63,1.7v1.5h-3.39l.75.83-.75.43c2.25,0,3.39.24,3.39.71v4.58l-1.38.75c.28.47.55,1.03.91,1.7.32.63.47,1.03.47,1.26,0,.2-.12.39-.32.59-.24.16-.32.28-.32.36,0,.79.79,3,2.49,6.71,1.66,3.71,2.76,6.04,3.32,6.95.36.55.67.95.91,1.11.24.2.51.28.79.28.71,0,1.5.43,2.33,1.26.28.28.43.55.43.87v.2c0,.43.47.91,1.46,1.46.08.08.2.2.32.36.16.12.28.28.32.39-.83.51-1.34.75-1.46.75ZM24.08,68.96c-.16.39-.36.67-.51.83-.2.16-.47.2-.91.2-1.46,0-2.49-.39-3.08-1.26.24-.63.63-1.03,1.3-1.14.63-.16,1.38-.24,2.33-.24s1.42.24,1.58.63c-.28.24-.51.55-.71.99ZM28.11,69.83c-.51.39-1.46.59-2.8.59,0-1.11.28-1.89.79-2.33.55-.43,1.46-.63,2.8-.63,0,1.18-.24,2.01-.79,2.37ZM30.75,70.66c-.95-.16-1.42-.36-1.42-.55l.12-.12c0-.39.08-.87.28-1.34.16-.51.32-.75.47-.75,2.09,0,3.16.99,3.16,2.96-.79,0-1.66-.08-2.61-.2ZM45.63,69.99h-7.07c-.36.32-.79.47-1.3.55-.47.08-1.03.12-1.58.12-1.26,0-1.89-.67-1.89-2.01l1.46.08c2.13,0,5.84.2,11.13.55l-.75.71ZM42.16,45c-.16,0-.36-.04-.63-.08-.28-.08-.43-.24-.43-.43l1.38-2.64h5.72c-.43.36-1.46.95-3.04,1.86-1.58.87-2.61,1.3-3,1.3ZM44.05,45.87l-.32-.12c1.07-1.26,2.05-1.89,2.96-1.89h.32c-1.78,1.34-2.76,2.01-2.96,2.01ZM50.41,69.36h-.63c-.28,0-.63-.04-1.03-.08-.36-.08-.75-.28-1.11-.55.51-.63.95-1.03,1.38-1.14.43-.16,1.03-.24,1.82-.24.55,0,1.1.04,1.62.12.55.08,1.11.24,1.78.51-.36.95-1.66,1.38-3.83,1.38ZM54.91,65.76c-.16.63-.39.95-.67.95-.32,0-.95-.24-1.93-.75-.99-.47-1.46-.79-1.46-.95,0-.67,1.42-1.07,4.34-1.07,0,.59-.12,1.18-.28,1.82ZM51.59,57.51c.67-.91,1.78-1.38,3.28-1.38-.16,1.14-.55,2.01-1.22,2.61-.67.59-1.58.87-2.72.87v-1.14l1.38-.2.63-.87-1.34.12ZM54.87,59.53v2.64h-3.28v-1.38l3.28-1.26ZM55.34,48.79c-.12,1.62-.51,3.28-1.22,4.86-.71,1.58-1.86,2.37-3.51,2.37,0-.47.12-.83.39-1.07.24-.2.59-.39.99-.55.43-.2.71-.43.87-.79h-2.13c0-.71.55-1.54,1.58-2.45,1.14-.99,1.7-1.93,1.7-2.76h-3.91c0-.63.36-1.46,1.07-2.45.63-.75.95-1.42.95-2.01-.36,0-.75.08-1.22.24-.47.12-.79.24-.99.32-.99.43-1.74.63-2.25.63l-.63-.12,2.76-3.16h5.09l.63.63c0,2.53-.08,4.62-.16,6.32ZM49.78,51.59c0-.95.24-1.58.67-1.97.47-.39,1.18-.59,2.17-.59h.24l-1.93,2.57h-1.14Z"/>
    <path class="cls-1" d="M115.82,64.34c-.2-.67-.59-1.22-1.22-1.66-.24.08-.43.2-.71.39-.24.16-.47.28-.67.36-.16-.36-.36-.59-.59-.67-.24-.12-.59-.16-.99-.16h-.63l-1.5.08,1.18-.51-1.38-.12c-.71,0-1.11.24-1.18.63l-.75-.51c-.04-.08-.71-.2-2.01-.39-1.26-.16-2.37-.24-3.28-.24-1.18,0-3.12.36-5.8,1.07-2.41.55-4.03.83-4.89.83-1.89,0-4.14-.08-6.71-.28-2.57-.16-3.91-.32-3.99-.47l-.71-1.14v-19.7c0-.43.28-.63.83-.63l1.07.08,2.96-.08c8.88-.51,16.18-.75,21.91-.75l1.38-1.18c-.08-.36-.08-1.82-.08-4.42,0-.63,0-1.18.08-1.66.08-.47.24-.83.55-1.11l-1.3.63c-.28-.71-.71-1.46-1.26-2.21h-11.84c0,.71-.28,1.03-.87,1.03l-.2-.08h.12c-.16,0-.47-.24-.99-.75-.63,0-1.34.12-2.09.32-2.13.36-3.99.51-5.61.51l-3.39-.2-1.26-1.26.71-6.16c0-.71-.12-1.82-.39-3.36-.32-1.42-.43-2.53-.43-3.32,0-.83.04-1.54.16-2.09.08-.59.32-1.26.67-2.01,6.16-1.58,13.14-2.33,21-2.33,3,0,6,.08,9,.32l2.53-.63-.12-1.18c0-.83.16-1.78.43-2.76.36-.91.51-1.97.51-3.16-.04-.2-.2-.47-.36-.75-.2-.28-.36-.47-.47-.63-4.66-.43-7.46-.63-8.37-.63l-3.51.2c-3.79.32-7.22.43-10.26.43-.43.51-1.07.75-1.89.75-1.5,0-2.61-.04-3.4-.12-.79-.08-1.62-.28-2.53-.63h-13.15v28.07c.55,2.41.95,4.86,1.11,7.42.2,2.53.28,5.49.28,8.88v4.34c0,3.12-.12,6.32-.32,9.63-.08,1.07-.16,2.41-.2,4.03-.08,1.62-.12,3.51-.12,5.61.28.79.99,1.34,2.09,1.7,1.14.36,2.21.55,3.2.55h27.32c1.54.71,2.88,1.14,3.91,1.38,1.07.2,2.53.32,4.34.32l2.88-.12c.99-1.07,1.46-3.32,1.46-6.79,0-1.11-.08-2.01-.24-2.68ZM102.08,4.54h4.78c0,.71-.36,1.26-.99,1.62-.71.36-1.42.51-2.21.51-.55,0-.99-.08-1.26-.28-.28-.16-.43-.51-.43-1.11,0-.28.04-.51.12-.75ZM90.44,5.29v.63h-.75l.75-.63ZM100.86,35.21c.63-.59,1.26-.99,1.97-1.22.55,1.22,1.22,2.29,2.01,3.2h-5.29c.28-.71.71-1.38,1.3-1.97ZM95.02,34.62h.71c0,.51-.08,1.18-.2,2.01-.16.87-.32,1.26-.51,1.26h-3.32l3.32-3.28ZM87.95,35.65c1.11-.83,2.29-1.18,3.55-1.11l1.5.08c-.59.99-1.54,1.89-2.92,2.72-1.38.79-2.64,1.22-3.79,1.22,0-1.14.55-2.13,1.66-2.92ZM86.09,35.37c0,.79-.47,1.38-1.46,1.86-1.03.47-1.93.67-2.76.67v-1.14h-3.91c0-.91.24-1.38.71-1.38h7.42ZM85.58,8.05c.2-.43.51-.71.95-.87l.12.75c0,.79-.39,1.18-1.18,1.18-.2,0-.32-.08-.32-.24.08-.12.2-.39.43-.83ZM72.75,8.49l.75-3.2c0-.08,1.7-.08,5.09-.08,2.37,0,4.14.24,5.29.71-.08.36-1.38,1.11-3.87,2.25-2.53,1.11-4.07,1.7-4.62,1.7h-.75l1.5-2.68c-1.54.87-2.68,1.3-3.39,1.3ZM78.04,28.7c0,1.86-1.14,2.76-3.47,2.76,0-.79.36-1.42,1.11-1.97.75-.51,1.54-.79,2.37-.79ZM74.13,11.64c.55-.36,1.22-.51,2.01-.51h.43c-.36.55-.83,1.07-1.42,1.46-.63.43-1.22.63-1.89.63,0-.67.32-1.22.87-1.58ZM75.2,16.54c-1.14,0-1.7-.32-1.7-.87,0-.12.39-.47,1.22-1.07.79-.55,1.42-1.07,1.86-1.46l.08,1.58c0,1.26-.24,2.25-.67,2.96-.47.71-1.3,1.54-2.49,2.53l-.12-.95c0-.55.16-.95.43-1.22.28-.24.67-.47,1.14-.67.51-.2.91-.51,1.18-.95l-.95.12ZM77.61,19.5c0,1.18-.04,1.97-.16,2.37-.08.39-.36.67-.83.79-.47.16-1.34.24-2.61.24,1.22-2.29,2.41-3.39,3.59-3.39ZM73.5,24.79c0-.08.24-.2.67-.32.47-.16.87-.24,1.22-.24.43,0,.91.12,1.38.28.51.2.75.36.75.47,0,.87-.51,1.74-1.5,2.64-.99.95-1.82,1.38-2.53,1.38v-4.22ZM73.94,33.91c0-.67.4-1.03,1.22-1.18.79-.16,1.78-.2,2.88-.2v.83l-3.39,3.39c-.04-.2-.2-.59-.39-1.18-.24-.55-.32-1.11-.32-1.66ZM75.36,49.74c.16-.55.59-.79,1.3-.79,0,2.01-.51,3.04-1.58,3.04,0-.99.08-1.74.28-2.25ZM74.96,47.13c-.12-.28-.24-.51-.32-.63,0-.36.2-.59.59-.71.39-.08.71-.16,1.03-.16,0,1.22-.32,1.93-.87,2.13-.12-.12-.28-.36-.43-.63ZM76.26,43.58c-.32.24-.87.36-1.7.36,0-.67.32-1.3.95-1.78.63-.51.99-.79,1.07-.87l.08.75c0,.79-.12,1.3-.39,1.54ZM76.19,39.67c-.43.24-.95.36-1.54.36,0-1.07.75-1.58,2.25-1.58,0,.55-.24.99-.71,1.22ZM74.41,57.08c-.04-.2-.08-.47-.08-.83,0-2.21.51-3.32,1.5-3.32l.12-.08c.12,0,.28.24.4.67.16.47.24.87.24,1.22s-.16.91-.47,1.66c-.32.71-.55,1.11-.71,1.11h-.95c0-.08,0-.24-.04-.43ZM76.26,61.54c0,.47-.12.95-.4,1.38-.24.39-.63.63-1.22.63v-2.01h1.62ZM75.4,68.72c-.08-.08-.2-.2-.43-.39-.2-.24-.32-.47-.32-.75v-.24c.08-.04.32-.55.71-1.46.39-.95.79-1.5,1.22-1.7v1.14h1.7c0,.36-.47.99-1.34,1.86-.87.91-1.38,1.42-1.54,1.54ZM79.15,68.37c-.36.24-.99.36-1.86.36,1.07-.83,2.21-1.5,3.39-2.01-.63.87-1.14,1.42-1.54,1.66ZM82.62,68.84l-.75-.12c.2-.2.47-.39.83-.51.36-.16.63-.24.87-.24h.32c-.24.59-.63.87-1.26.87ZM100.15,65.45c.24-.08.51-.12.79-.12h.63c-.16.43-.75.63-1.82.63h-.2c.12-.28.32-.43.59-.51ZM91.03,68.49c-.59.24-1.46.36-2.61.36l-1.89-.12c.43-.71,1.07-1.22,1.89-1.58.87-.36,1.74-.51,2.64-.51l1.26.08c-.28.91-.71,1.5-1.3,1.78ZM96.28,68.09c-.59.43-.99.63-1.26.63.32-.47.75-.95,1.26-1.42.47-.47.79-.67.95-.67l.32.08c-.28.51-.71.95-1.26,1.38ZM101.92,67.82c-.43.12-1.26.16-2.37.16l2.53-2.01h6.59l-5.21,2.01v-1.26c-.55.63-1.07,1.03-1.54,1.11ZM107.77,69.12c-.75.43-1.5.67-2.29.67v-1.07c0-.2.43-.47,1.34-.83.87-.36,1.5-.55,1.86-.55h.83c-.43.71-.99,1.3-1.74,1.78ZM112.27,69.36c-.36.87-1.14,1.3-2.33,1.3v-4.7h2.84c0,1.42-.16,2.57-.51,3.39Z"/>
    <path class="cls-1" d="M182.14,70.9c-.28-.79-.39-1.22-.39-1.22,0,0-.04-.12-.12-.39-.43-3.39-.63-7.7-.63-12.95v-3.71c0-2.17.2-5.37.63-9.63.47-3.95.75-7.34.75-10.14,0-2.13-.12-4.38-.32-6.75-.24-2.33-.36-3.91-.43-4.58-.51-4.26-.75-7.97-.75-11.13,0-.55-.12-1.34-.36-2.37-.24-1.03-.39-1.74-.39-2.09,0-.43.08-.91.24-1.46.12-.55.2-.99.2-1.26,0-.67-.39-1.07-1.22-1.22-.79-.2-1.89-.28-3.32-.28-1.7,0-3.04.2-4.03.59-.99.39-1.5,1.26-1.5,2.68,0,1.86-.08,3.59-.32,5.29,0,.51-.04,1.3-.16,2.45-.08,1.14-.16,2.13-.16,2.96l.63,2.57.12,14.05c0,9.91-.32,14.84-.95,14.84-.71,0-2.37-1.66-4.97-4.93-2.6-3.28-5.25-6.79-7.89-10.58-2.64-3.79-3.99-5.84-3.99-6.2-1.18-2.84-2.57-5.53-4.11-8.05-1.58-2.53-3.75-5.96-6.59-10.26-.36-.51-1.74-2.64-4.22-6.47-1.34-.28-2.45-.43-3.32-.51-.91-.08-1.86-.12-2.92-.12-.95,0-1.78.04-2.61.12-.83.08-1.78.24-2.92.51l.12,2.45c0,2.05-.2,4.18-.51,6.43-.32,2.72-.43,4.82-.43,6.36,0,1.38.16,2.84.47,4.42.32,1.58.63,3.08.99,4.5,0,5.76-.24,12.51-.71,20.21-.43,8.49-.67,14.8-.67,18.95.08,1.14.2,2.57.36,4.3.12,1.74.28,3.16.39,4.3.63.12,1.26.28,1.86.43.59.12,1.03.2,1.34.2,1.97,0,3.67-.16,5.05-.43,1.42-.28,2.13-.99,2.13-2.09,0-1.7.24-3.79.75-6.28.08-.43.2-1.26.43-2.61.2-1.3.32-2.53.32-3.75,0-4.38-.28-9.59-.75-15.67-.08-1.07-.2-3.24-.43-6.51-.2-3.28-.32-6.28-.32-9.04.36-2.68.71-4.03,1.07-4.03.55,0,1.78,1.18,3.67,3.59,1.86,2.41,3.71,5.05,5.61,8.01,1.86,2.92,3,4.93,3.43,6.08.36.91,1.18,2.13,2.53,3.59.99.99,1.66,1.78,2.01,2.33.24.43.51,1.07.87,1.89.36.87.75,1.62,1.22,2.29.43.67,1.07,1.03,1.82,1.03.51.75,1.07,1.89,1.7,3.36.79,1.86,1.54,3.24,2.25,4.18.71.99,1.62,1.46,2.76,1.46,0,.63.04,1.03.16,1.14.08.16.47.24,1.1.24,0,1.34.36,2.49,1.14,3.43.79.95,1.89,1.97,3.28,3.12.16.12.63.55,1.46,1.22.79.67,1.46,1.34,1.93,2.05.71.2,1.93.47,3.71.87,1.78.32,3.24.51,4.34.51,0-.71-.12-1.46-.43-2.29ZM173.06,12.08h2.01c-.63-.2-1.14-.71-1.5-1.42-.35-.75-.51-1.46-.51-2.17l.71-2.57h3.95c.12.08.28.24.4.47.16.28.24.51.24.71,0,.47-.08,1.18-.24,2.09-.12.95-.28,1.58-.4,1.93l-1.26.63.63.63-3.32,3.28h-.71v-3.59ZM173.06,18.24l4.03-3.83h.71c0,.28-.67,1.34-2.09,3.24-1.42,1.86-2.29,2.8-2.64,2.8v-2.21ZM177.91,22.34c-1.89,0-2.84-.36-2.84-1.07,0-.83.67-2.05,2.01-3.71.55,0,.83,1.62.83,4.78ZM173.69,23.68c.36-.63.63-.91.83-.91.43,0,1.03.12,1.82.36.79.28,1.22.59,1.38,1.03l-3.2,3.16h-.75c-.12,0-.28-.32-.47-.99-.16-.67-.24-1.18-.24-1.54.08-.16.28-.51.63-1.11ZM136.31,5.09c.12,0,.32.16.51.51.24.36.32.63.32.87-.28.28-.91.67-1.89,1.22-.99.51-1.54.83-1.58.87l-.32-.08c.36-.71.79-1.46,1.38-2.25.55-.75,1.07-1.14,1.58-1.14ZM129.95,3.2l1.46.71-2.09,1.3c-.36-.71-.55-1.14-.55-1.3,0-.47.39-.71,1.18-.71ZM130.62,6.36c1.26-1.26,2.37-1.89,3.36-1.89l.63.08-5.29,5.84c-.08,0-.2-.08-.32-.2-.16-.16-.24-.32-.24-.43,0-.99.63-2.13,1.86-3.39ZM130.54,11.29c1.14-.59,2.29-.91,3.43-.91h.63l-5.29,3.28h-.55c0-.99.59-1.78,1.78-2.37ZM133.34,65.33l-3.39,3.2h-1.7c0-1.62.4-2.68,1.22-3.2.79-.47,2.09-.71,3.87-.71v.71ZM133.27,63.16c-.59.2-1.46.28-2.57.28-.87,0-1.42-.28-1.7-.79s-.43-1.26-.43-2.17l.12-2.13c0-1.62.24-2.76.71-3.43.51-.67,1.58-1.11,3.2-1.3,0,.36-.36,1.3-1.07,2.84-.63,1.42-.95,2.25-.95,2.53l.12,2.01c0,.71-.28,1.3-.75,1.7,1.11,0,2.45-.67,4.03-2.01.08.16.12.32.16.55.04.2.04.39.04.51,0,.79-.28,1.26-.91,1.42ZM130.7,45.75c.28-.99,1.34-2.29,3.28-3.91.08.12.12.32.16.59.04.24.04.43.04.55,0,1.86-1.14,2.76-3.47,2.76ZM134.37,49.3c.16.39.24.71.24.99,0,1.58-1.14,2.33-3.4,2.33,0-1.46.91-2.92,2.76-4.34.12.32.28.63.39,1.03ZM132.63,31.3c-.51.51-1.26.79-2.17.79,0-.71.32-1.34.95-1.97.63-.59,1.3-.87,2.01-.87,0,.83-.24,1.5-.79,2.05ZM133.74,32.92c0,.95-.24,1.7-.79,2.33-.51.67-1.26,1.34-2.25,2.01-.51-1.46-.75-2.25-.75-2.33,0-.75.39-1.3,1.22-1.58.79-.28,1.66-.43,2.57-.43ZM133.34,27.32c0,.24-.47.63-1.46,1.22-.95.59-1.62.99-2.05,1.11,0-1.97,1.18-2.96,3.51-2.96v.63ZM130.31,41.25c.24-.51.75-.87,1.5-1.07.75-.16,1.26-.28,1.54-.36v.63l-3.39,3.28c0-1.14.12-1.97.36-2.49ZM131.73,38.76c0-.87.55-1.82,1.62-2.84.36.12.55.28.63.47.08.16.08.47.08.87,0,1.03-.75,1.5-2.33,1.5ZM132.48,23.21c-.99.99-1.82,1.7-2.53,2.21l-.63-.63v-6.55c.4-.36,1.07-.75,2.01-1.18.91-.43,1.46-.71,1.7-.83,0,.83.08,1.66.24,2.49.2.79.43,1.42.71,1.86,0,.75-.51,1.62-1.5,2.64ZM130.31,48.04c.67-.28,1.18-.39,1.54-.39h.75l-2.64,2.64c-.08-.12-.2-.32-.32-.55-.16-.28-.28-.51-.32-.71,0-.39.32-.75.99-.99ZM134.13,57.55c-.59.95-1.42,1.42-2.41,1.42,0-.91.32-1.86.99-2.84.63-.99,1.38-1.46,2.33-1.38,0,.91-.32,1.86-.91,2.8ZM129.32,16.3h-.55c.99-1.26,2.6-2.76,4.89-4.54,2.25-1.78,3.87-2.64,4.86-2.64.28,0,.55.28.79.83.24.59.43.95.47,1.18l-10.46,5.17ZM144.99,20.88l-1.93,2.64c-.99-.87-1.58-1.62-1.82-2.29-.28-.67-.39-1.7-.39-3.12-.71,0-1.22-.12-1.58-.39-.36-.24-.71-.71-1.11-1.46-.39-.75-.75-1.38-1.03-1.86,1.89-1.26,3.04-1.93,3.4-2.01l3.2,3.28c3.08,4.18,4.66,7.14,4.66,8.92,0,.63-1.38.95-4.15.95,0-.59.16-1.26.43-2.09.28-.79.39-1.42.39-1.86l-.08-.71ZM147.32,28.82c-.28,0-.83-.67-1.58-2.01.39-.43.91-.71,1.46-.79.55-.12,1.26-.16,2.13-.16,0,.71-.2,1.38-.55,2.01-.36.63-.83.95-1.46.95ZM150.16,32.72c-.39,0-.83-.2-1.26-.59-.43-.39-.63-.99-.63-1.86,0-.39.24-.75.67-1.03.47-.32.83-.47,1.03-.55.83.51,1.42.91,1.82,1.26.32.36.51.83.51,1.38,0,.51-.24.87-.63,1.07-.43.2-.91.32-1.5.32ZM152.17,36.63c-.91-.47-1.38-1.11-1.38-1.89s.28-1.26.75-1.42c.51-.2,1.22-.28,2.13-.28,0,1.7-.51,2.88-1.5,3.59ZM155.77,42.59c-.2,0-.43-.24-.67-.71-.24-.43-.36-.83-.36-1.11s.32-.55.95-.79c.63-.24,1.03-.47,1.14-.71-.08,0-.28.04-.63.12-.36.08-.79.12-1.26.12-.71,0-1.22-.12-1.58-.32-.36-.24-.55-.67-.55-1.38.28-.16.67-.63,1.11-1.42.47-.83.79-1.22.91-1.22.79,0,1.42.47,1.93,1.42.47.95.71,1.86.71,2.68,0,.63-.12,1.34-.39,2.13-.32.79-.71,1.18-1.3,1.18ZM161.41,50.29s.2-.71.63-2.01c-.24.24-.51.39-.87.55-.36.12-.63.2-.83.2-.63,0-.95-.32-.95-.95,0-.36.04-.71.16-1.07.08-.36.16-.63.16-.83-.87,0-1.46-.2-1.82-.55-.36-.36-.51-.99-.51-1.89,0-.83.12-1.62.35-2.33.24-.71.67-1.07,1.34-1.07.04,0,.16.04.32.12l3.28,6.55c.12-.08.24-.08.32-.08.28.12.75.47,1.38.99.63.51.95,1.03.95,1.42,0,.51-.28.91-.87,1.18-.55.28-.83.39-.83.39h-.95c-.87,0-1.26-.2-1.26-.63ZM165.2,54.95v-2.09c-.12.12-.32.28-.59.47-.24.16-.47.28-.67.28-.16-.16-.28-.32-.36-.51-.12-.16-.2-.32-.28-.47,0-.55.39-1.11,1.22-1.62.79-.55,1.54-.79,2.17-.79v1.78c.28,0,.51-.04.75-.08.2-.08.36-.12.51-.12.2,0,.36.16.43.43.04.28.08.71.08,1.38-.39.28-.99.55-1.7.87-.71.32-1.22.47-1.58.47ZM168.16,61.62c0-1.11.51-2.09,1.5-2.88.99-.83,2.09-1.46,3.4-1.86l.08.39c0,.79-.59,1.7-1.86,2.76-1.22,1.07-2.25,1.58-3.12,1.58ZM170.81,64.38c0-.63.2-1.07.59-1.26.39-.2.95-.36,1.66-.43,0,1.14-.75,1.7-2.25,1.7ZM177.71,66.32c0,1.46-.2,2.21-.55,2.21h-.08l-2.57-.55v-1.26l3.2-1.38v.99ZM176.65,63.87c-.79.55-1.74.83-2.88.83l3.32-3.28h.71c0,1.07-.36,1.89-1.14,2.45ZM177.08,57.95c-.95,2.33-2.64,3.47-5.21,3.47.16-.28.55-.91,1.26-1.89,1.66-2.49,2.45-3.99,2.45-4.58-1.18,0-2.64.63-4.3,1.82-1.66,1.22-2.57,1.86-2.8,2.01l-2.53-2.64c.36-.43.95-.83,1.82-1.26.83-.43,1.34-.67,1.58-.75.39.28.63.63.63,1.07l-.12.32c1.07,0,1.86-.28,2.41-.79.51-.55,1.03-1.38,1.5-2.49.51-1.07,1.03-1.86,1.54-2.41.55-.51,1.34-.79,2.41-.79.47,0,.75.43.75,1.26,0,2.76-.47,5.29-1.38,7.66ZM178.35,47.01c-.43.71-1.11,1.34-2.01,1.93-.91.55-1.78.83-2.57.83v-5.29h4.03c0,.2-.2.59-.67,1.22-.47.59-.91,1.03-1.34,1.3h2.57ZM177.95,37.9c-.87,1.58-1.58,2.68-2.17,3.32.36-.24.83-.43,1.34-.59.51-.16.95-.28,1.22-.28v2.64h-4.58c.16,0,.36-.16.55-.47.2-.32.28-.55.2-.67-.12-.36-.35-.63-.63-.79-.28-.2-.47-.39-.63-.63-.12-.28-.2-.83-.2-1.66,0-3.2.24-5.45.71-6.79.79-.75,1.22-1.22,1.3-1.38l-.12-.51h-.75c0-.79.43-1.66,1.34-2.61.87-.95,1.7-1.42,2.49-1.42.12,0,.36.16.63.47.28.32.43.59.43.79,0,.51-.16.91-.47,1.18-.32.28-.71.55-1.18.79s-.79.51-.99.79h2.53c0,1.18-.36,2.37-1.11,3.47-.75,1.14-1.7,2.17-2.8,3.08v1.18c.75-.08,1.46-.63,2.09-1.7.35-.55.67-.99.95-1.22.32-.24.71-.36,1.18-.36,0,.71-.43,1.82-1.34,3.36Z"/>
    <path class="cls-1" d="M240.75,64.34c-.16-.67-.55-1.22-1.22-1.66-.2.08-.43.2-.67.39-.24.16-.47.28-.67.36-.16-.36-.36-.59-.59-.67-.24-.12-.59-.16-1.03-.16h-.63l-1.46.08,1.14-.51-1.38-.12c-.67,0-1.07.24-1.14.63l-.75-.51c-.08-.08-.75-.2-2.01-.39-1.26-.16-2.37-.24-3.28-.24-1.22,0-3.16.36-5.84,1.07-2.37.55-4.03.83-4.86.83-1.89,0-4.15-.08-6.71-.28-2.61-.16-3.91-.32-3.99-.47l-.75-1.14v-19.7c0-.43.28-.63.87-.63l1.07.08,2.96-.08c8.88-.51,16.18-.75,21.91-.75l1.38-1.18c-.08-.36-.12-1.82-.12-4.42,0-.63.04-1.18.12-1.66.08-.47.24-.83.51-1.11l-1.26.63c-.28-.71-.71-1.46-1.26-2.21h-11.88c0,.71-.28,1.03-.83,1.03l-.2-.08c-.16-.08-.43-.32-.87-.75-.63,0-1.34.12-2.13.32-2.09.36-3.99.51-5.61.51l-3.4-.2-1.26-1.26.75-6.16c0-.71-.16-1.82-.43-3.36-.28-1.42-.39-2.53-.39-3.32,0-.83.04-1.54.16-2.09.08-.59.32-1.26.67-2.01,6.16-1.58,13.14-2.33,20.96-2.33,3.04,0,6.04.08,9,.32l2.57-.63-.12-1.18c0-.83.16-1.78.43-2.76.36-.91.51-1.97.51-3.16-.08-.2-.2-.47-.36-.75-.2-.28-.35-.47-.47-.63-4.66-.43-7.46-.63-8.37-.63l-3.51.2c-3.79.32-7.22.43-10.26.43-.43.51-1.07.75-1.89.75-1.5,0-2.64-.04-3.39-.12-.79-.08-1.62-.28-2.57-.63h-13.11v28.07c.55,2.41.91,4.86,1.11,7.42.16,2.53.28,5.49.28,8.88v4.34c0,3.12-.12,6.32-.32,9.63-.08,1.07-.16,2.41-.24,4.03-.08,1.62-.12,3.51-.12,5.61.32.79.99,1.34,2.13,1.7,1.14.36,2.21.55,3.2.55h27.32c1.54.71,2.84,1.14,3.91,1.38,1.07.2,2.53.32,4.34.32l2.84-.12c.99-1.07,1.5-3.32,1.5-6.79,0-1.11-.08-2.01-.28-2.68ZM227.06,4.54h4.78c0,.71-.36,1.26-1.03,1.62-.67.36-1.38.51-2.17.51-.55,0-.99-.08-1.26-.28-.28-.16-.43-.51-.43-1.11,0-.28.04-.51.12-.75ZM215.41,5.29v.63h-.75l.75-.63ZM225.83,35.21c.59-.59,1.26-.99,1.97-1.22.55,1.22,1.22,2.29,2.01,3.2h-5.29c.28-.71.71-1.38,1.3-1.97ZM219.95,34.62h.75c0,.51-.08,1.18-.2,2.01-.16.87-.32,1.26-.55,1.26h-3.28l3.28-3.28ZM212.93,35.65c1.07-.83,2.25-1.18,3.55-1.11l1.46.08c-.55.99-1.54,1.89-2.92,2.72-1.34.79-2.6,1.22-3.75,1.22,0-1.14.55-2.13,1.66-2.92ZM211.07,35.37c0,.79-.51,1.38-1.5,1.86-.99.47-1.89.67-2.72.67v-1.14h-3.95c0-.91.24-1.38.75-1.38h7.42ZM210.52,8.05c.24-.43.55-.71.99-.87l.08.75c0,.79-.4,1.18-1.14,1.18-.24,0-.32-.08-.32-.24.04-.12.2-.39.4-.83ZM197.73,8.49l.75-3.2c0-.08,1.7-.08,5.05-.08,2.41,0,4.18.24,5.29.71-.04.36-1.34,1.11-3.83,2.25-2.53,1.11-4.07,1.7-4.62,1.7h-.75l1.5-2.68c-1.58.87-2.68,1.3-3.39,1.3ZM203.02,28.7c0,1.86-1.18,2.76-3.51,2.76,0-.79.39-1.42,1.14-1.97.71-.51,1.5-.79,2.37-.79ZM199.11,11.64c.55-.36,1.22-.51,2.01-.51h.39c-.36.55-.83,1.07-1.42,1.46-.59.43-1.22.63-1.86.63,0-.67.28-1.22.87-1.58ZM200.18,16.54c-1.14,0-1.7-.32-1.7-.87,0-.12.4-.47,1.18-1.07.83-.55,1.46-1.07,1.86-1.46l.12,1.58c0,1.26-.24,2.25-.67,2.96-.47.71-1.3,1.54-2.49,2.53l-.12-.95c0-.55.12-.95.43-1.22.28-.24.67-.47,1.14-.67.51-.2.87-.51,1.18-.95l-.95.12ZM202.58,19.5c0,1.18-.04,1.97-.16,2.37-.08.39-.39.67-.83.79-.47.16-1.34.24-2.61.24,1.18-2.29,2.41-3.39,3.59-3.39ZM198.48,24.79c0-.08.2-.2.67-.32.47-.16.87-.24,1.22-.24.43,0,.87.12,1.38.28.47.2.71.36.71.47,0,.87-.47,1.74-1.46,2.64-.99.95-1.86,1.38-2.53,1.38v-4.22ZM198.87,33.91c0-.67.43-1.03,1.22-1.18.83-.16,1.78-.2,2.92-.2v.83l-3.39,3.39c-.08-.2-.2-.59-.43-1.18-.2-.55-.32-1.11-.32-1.66ZM200.33,49.74c.16-.55.59-.79,1.3-.79,0,2.01-.51,3.04-1.58,3.04,0-.99.08-1.74.28-2.25ZM199.94,47.13c-.12-.28-.24-.51-.32-.63,0-.36.2-.59.59-.71.4-.08.71-.16.99-.16,0,1.22-.28,1.93-.83,2.13-.16-.12-.28-.36-.43-.63ZM201.2,43.58c-.28.24-.83.36-1.7.36,0-.67.32-1.3.95-1.78.67-.51,1.03-.79,1.07-.87l.12.75c0,.79-.16,1.3-.43,1.54ZM201.16,39.67c-.47.24-.99.36-1.54.36,0-1.07.75-1.58,2.21-1.58,0,.55-.2.99-.67,1.22ZM199.35,57.08c-.04-.2-.04-.47-.04-.83,0-2.21.51-3.32,1.5-3.32l.08-.08c.16,0,.28.24.43.67.16.47.2.87.2,1.22s-.16.91-.47,1.66c-.32.71-.55,1.11-.67,1.11h-.95c0-.08-.04-.24-.08-.43ZM201.2,61.54c0,.47-.12.95-.35,1.38-.24.39-.67.63-1.22.63v-2.01h1.58ZM200.37,68.72c-.08-.08-.2-.2-.43-.39-.2-.24-.32-.47-.32-.75v-.24c.08-.04.32-.55.71-1.46.36-.95.79-1.5,1.18-1.7v1.14h1.7c0,.36-.43.99-1.3,1.86-.91.91-1.42,1.42-1.54,1.54ZM204.12,68.37c-.39.24-.99.36-1.86.36,1.07-.83,2.21-1.5,3.4-2.01-.63.87-1.14,1.42-1.54,1.66ZM207.56,68.84l-.71-.12c.2-.2.47-.39.83-.51.36-.16.63-.24.83-.24h.32c-.2.59-.63.87-1.26.87ZM225.08,65.45c.28-.08.51-.12.79-.12h.63c-.12.43-.71.63-1.78.63h-.2c.12-.28.32-.43.55-.51ZM216,68.49c-.63.24-1.5.36-2.6.36l-1.89-.12c.39-.71,1.03-1.22,1.89-1.58.83-.36,1.74-.51,2.64-.51l1.26.08c-.28.91-.71,1.5-1.3,1.78ZM221.22,68.09c-.55.43-.99.63-1.26.63.36-.47.79-.95,1.26-1.42.51-.47.83-.67.99-.67l.32.08c-.32.51-.71.95-1.3,1.38ZM226.9,67.82c-.47.12-1.26.16-2.37.16l2.53-2.01h6.55l-5.17,2.01v-1.26c-.59.63-1.07,1.03-1.54,1.11ZM232.7,69.12c-.71.43-1.5.67-2.25.67v-1.07c0-.2.43-.47,1.3-.83.91-.36,1.5-.55,1.86-.55h.87c-.43.71-1.03,1.3-1.78,1.78ZM237.24,69.36c-.4.87-1.14,1.3-2.37,1.3v-4.7h2.88c0,1.42-.2,2.57-.51,3.39Z"/>
    <path class="cls-1" d="M298.51,66.55c-2.01-3.08-3.67-5.8-5.01-8.21-.51-.87-.99-1.78-1.42-2.64-1.26-2.53-2.33-5.05-3.16-7.5-.43-.87-1.11-1.82-2.01-2.88-.16-.12-.55-.67-1.22-1.62-.67-.95-1.14-1.89-1.42-2.8-.51.2-.75.55-.75,1.03,0,.32.04.63.16.99.12.36.16.59.16.71h-2.84l1.26-1.34c-.24-.43-.79-.75-1.66-.91-.87-.2-1.42-.51-1.62-1.03,2.37-.83,3.67-1.26,3.91-1.26.55-.16,1.07-.67,1.46-1.58.36-.71.71-1.22,1.03-1.5.32-.28.79-.43,1.42-.43.2,0,.43.04.67.08.28.04.47.08.59.16l-3.16,3.28-.24.43c0,.12.2.32.55.51.36.24.67.32.95.32.2,0,.43-.24.67-.67.28-.47.71-.71,1.34-.71l.75.12c.12,0,.79-.59,1.93-1.82.36-.36.71-.71,1.03-1.03.67-.71,1.18-1.34,1.58-1.82,2.6-3.51,3.91-8.53,3.91-14.92,0-1.34-.24-3.28-.71-5.72-.36-1.22-.59-2.37-.67-3.51h-.63v-1.38c-.36-.36-.99-.99-1.89-1.93-.51-.51-.99-1.03-1.46-1.46-.39-.39-.79-.79-1.18-1.14-1.86-1.54-4.14-2.49-6.95-2.8-2.76-.32-6.32-.47-10.62-.47-1.42,0-3.83.16-7.22.51l-3.08.24c-.47,0-1.07-.04-1.74-.12-.67-.08-1.18-.16-1.54-.2-1.54-.32-2.76-.43-3.71-.43-2.53,0-4.22.36-5.13,1.07-.87.71-1.3,2.09-1.3,4.22,0,.08.2.95.63,2.64.91,2.88,1.38,4.82,1.38,5.72,0,.43-.12.99-.32,1.74-.24.75-.32,1.3-.32,1.66,0,.2.2.79.63,1.74.4.95.63,1.7.63,2.17v22.22c.28,1.07.47,1.97.59,2.72.08.75.16,1.66.16,2.8,0,1.89-.12,3.95-.36,6.08-.2,2.17-.32,3.55-.39,4.18-.51,3.83-.75,7.18-.75,10.07,0,.87.12,1.42.36,1.74.28.32.79.47,1.66.47s1.93-.04,3.28-.2c1.34-.16,2.49-.28,3.39-.43.83-.63,1.38-1.38,1.66-2.33.24-.91.36-2.05.36-3.47,0-1.97-.16-4.82-.43-8.49-.28-3.51-.39-6.2-.39-8.05,0-2.17.39-3.59,1.18-4.22.83-.63,2.37-.95,4.62-.95,1.5,0,2.68.04,3.67.16.95.12,2.17.28,3.63.59l3.91,5.8c.08.08.67.87,1.82,2.33,1.7,2.21,3.04,4.03,3.99,5.45.95,1.46,1.42,2.61,1.42,3.47l4.54,7.18c.63,0,1.07.43,1.34,1.26.24.87.55,1.5.95,1.89.39.43,1.14.67,2.29.67,1.22,0,2.53-.12,3.87-.36.16,0,.35-.04.55-.08,1.58-.28,2.33-.83,2.33-1.58-1.03-1.54-2.01-3.04-2.88-4.42ZM279.83,38.61c-.59.32-1.18.55-1.78.75-.63.16-.99.28-1.11.36,0-1.46.87-2.21,2.64-2.21l1.38.08c-.16.36-.51.71-1.14,1.03ZM286.78,33.79c.16-.08.36-.2.59-.32.24-.16.47-.24.67-.32.16,0,.32.08.47.2.2.16.32.28.39.43h-2.13ZM286.98,14.21c0-.43.2-.67.55-.67.12,0,.24.08.32.24.08.12.12.28.12.43,0,.12-.04.28-.12.39-.08.16-.2.24-.32.24-.36,0-.55-.24-.55-.63ZM290.93,31.74c-.36.24-.95.36-1.7.36,0-1.18.75-1.82,2.21-1.82,0,.71-.16,1.18-.51,1.46ZM294.28,24.99c-.28,1.93-.95,2.88-1.97,2.88-.2,0-.36,0-.51-.04-.79-.12-1.3-.47-1.58-1.07-.32-.75-.47-1.74-.47-2.92.36,0,.75.12,1.22.39.32.24.59.36.83.36.12.08.2.08.28.08.16,0,.28-.08.4-.2.08-.16.16-.28.16-.43-.28-.16-.55-.39-.83-.67-.63-.59-1.26-1.42-1.93-2.45-.99-1.5-1.5-2.76-1.5-3.75,1.38,0,2.53.08,3.47.24.91.16,1.66.39,2.17.71l-1.38.63c0,.16.04.28.2.36.16.12.2.24.2.39h1.7c0,1.74-.12,3.59-.43,5.49ZM283.94,9.51c0-2.37.32-3.91.95-4.54.36.16,1.42.39,3.16.75.99.16,2.01.91,3.04,2.29.32.43.63.87.83,1.3.71,1.03,1.26,2.09,1.74,3.28.71,1.7,1.07,2.96,1.07,3.83l-.08.43-2.76-.67-.43-.08v-.43c.16,0,.28-.04.43-.08.16-.04.36-.16.47-.28.24-.28.36-.51.36-.79l-.08-.32-.75-.16-5.09-1.14-.63-.71c.28-.24.67-.59,1.14-1.14.51-.51.75-.83.75-.87l-.08-.43c-.51,0-1.18.12-1.97.32-.83.2-1.5.32-2.05.32v-.87ZM282.87,4.34c.2,0,.39.16.51.43.16.28.24.47.24.63,0,.08-.08.2-.16.43-.12.2-.32.36-.59.51l-.63-.63c-.36.43-.63.99-.75,1.66-.16.67-.32,1.14-.51,1.5-1.5,0-2.61-.36-3.36-1.14-.75-.79-1.11-1.89-1.11-3.39h6.36ZM275.02,3.83c.63,0,.95,1.03.95,3.08-.39,0-.95.12-1.62.36-.67.24-1.18.36-1.54.36-.51,0-1.07-.51-1.7-1.54-.63-1.03-1.07-1.58-1.26-1.74l5.17-.51ZM263.3,4.34h5.29l1.26,2.64c0,.43-.63.63-1.89.63h-1.07c-1.22,0-2.25-.12-3.08-.36-.87-.24-1.46-.75-1.82-1.54l1.3-1.38ZM258.91,65.41c-.28,2.01-.67,3-1.26,3-1.46,0-2.21-.43-2.21-1.26s.51-1.54,1.58-2.33c.99-.87,1.58-1.58,1.7-2.21l-.32-.12c-.16,0-.67.43-1.58,1.3-.91.91-1.58,1.34-2.01,1.34.28-1.5.67-2.33,1.14-2.53-.36-.16-.51-.63-.51-1.38,0-.79.28-1.54.91-2.25.59-.67,1.26-1.03,2.05-1.03.63,0,.95.75.95,2.33,0,1.38-.12,3.12-.43,5.13ZM255.72,52.46c-.12-.16-.16-.32-.16-.47,0-.91.83-1.74,2.53-2.53l.12.63c0,.55-.2,1.03-.55,1.42-.36.39-.91.79-1.7,1.22-.04,0-.16-.08-.24-.28ZM255.79,56.25c.28-.24.79-.32,1.66-.32l1.26.08c-.79.99-1.82,1.86-3.16,2.57l-.12-.87c0-.75.12-1.26.36-1.46ZM256.58,48.28c0-.83.71-1.5,2.13-2.01-.47,1.38-1.18,2.01-2.13,2.01ZM255.72,20.45c-.63-1.7-.91-3.08-.91-4.15,0-.55.12-1.07.43-1.46.28-.43.67-.63,1.26-.63h.2c.16.47.36,1.46.63,2.96.28,1.46.43,2.41.43,2.84,0,1.18-.39,2.25-1.18,3.2,0-.16-.28-1.07-.87-2.76ZM256.07,38.13l-.51.95-.24-2.96.75,2.01ZM255.95,42.79c.99,0,1.5.39,1.5,1.14,0,.71-.63,1.7-1.89,3-.16-.24-.32-.63-.47-1.22-.2-.63-.28-1.11-.28-1.46,0-.99.39-1.46,1.14-1.46ZM258.28,54.47c-.39.39-1.22.59-2.41.59,0-.79.28-1.46.87-2.13.63-.63,1.26-.95,1.97-.95h.63c-.28,1.26-.63,2.13-1.07,2.49ZM258.83,6.79c-.59-.24-1.14-.55-1.74-.95-.63-.43-.99-.71-1.14-.87,0,.55-.28.87-.83.87-.36,0-.91-.51-1.7-1.5.36-.28.71-.43,1.1-.51.4-.08.79-.12,1.22-.12,1.07,0,2.49.2,4.34.63l-.75.63,1.93,2.01-.87.12c-.51,0-1.03-.12-1.58-.32ZM262.9,38.92c-.24.12-.43.16-.59.16-.39,0-.75-.24-1.03-.75h2.01c0,.28-.16.47-.39.59ZM260.61,33.16l.12-7.11c0-3.59-.04-6.12-.12-7.58-.04-1.46-.24-3.28-.51-5.57.51-.91,1.14-1.5,1.97-1.74.79-.24,1.9-.36,3.32-.36,4.54,0,8.17.16,10.97.51,2.76.36,5.41,1.3,7.89,2.88.91,2.01,1.58,3.95,2.01,5.68.4,1.78.63,3.71.63,5.72,0,2.13-.39,3.71-1.18,4.78-.75,1.07-1.78,1.78-3.08,2.13-1.26.36-3.08.63-5.49.83-1.62.16-2.8.28-3.51.43-1.18.43-2.29.67-3.32.75-1.03.04-2.64.08-4.82.08-2.6,0-4.22-.47-4.89-1.46ZM273.64,39.08c-.12-.08-1.07-.2-2.84-.32-1.07-.08-2.13-.16-3.2-.32-1.03-.16-1.58-.32-1.58-.55l8.49-.32c0,.71-.28,1.22-.87,1.5ZM276.68,42.59c-.32-.36-.47-.99-.47-1.82.55,0,1.11.24,1.58.75.51.47.75,1.03.75,1.58-.95,0-1.54-.2-1.86-.51ZM279.6,45.43h-1.3v-.51h1.3v.51ZM280.23,47.13c0-.63.63-.95,1.89-.95s2.17.12,2.76.36c.55.24.83.83.83,1.74-1.62,0-3.43-.24-5.41-.71l-.08-.43ZM282.24,50.29v-.83h2.64c-.28.55-1.18.83-2.64.83ZM294.01,69.16c-.32-.36-.79-.99-1.46-1.89-.12-.16-.2-.28-.28-.43-.55-.79-1.03-1.5-1.46-2.21-.99-1.58-1.66-2.88-2.01-3.95-.36-1.07-.51-2.29-.51-3.71-.24,0-.47.08-.83.24-.32.12-.55.2-.79.2-.36,0-.51-.43-.51-1.38l1.38-.71-.75.08c-.91,0-1.38-.43-1.38-1.26,0-.36.12-.67.39-.95.24-.28.36-.55.36-.87,0-.2-.24-.39-.71-.55-.43-.2-.83-.28-1.18-.28,0-.36.28-.67.83-.91.55-.24.91-.39,1.07-.47.71.16,1.74,2.05,3.08,5.72.91,2.05,1.42,3.2,1.58,3.47.39.79.83,1.62,1.38,2.53.2.32.4.67.63.99,1.46,2.25,2.53,4.38,3.16,6.36h-1.97Z"/>
    <path class="cls-1" d="M362.73,63.55c-1.7-3.75-2.96-6.67-3.79-8.8-.79-2.13-1.3-4.22-1.54-6.36-.28-2.53-.55-4.18-.87-4.97-.32-.79-.75-1.38-1.22-1.82-.63-.47-1.26-1.26-1.82-2.33-.63-1.26-1.14-3.36-1.58-6.24l-.43-2.33c0-.28-.43-1.07-1.26-2.33-.87-1.14-1.26-1.86-1.26-2.21,0-.24.08-.47.2-.75.16-.28.28-.51.43-.63h-1.38c0-.71-.24-1.5-.75-2.33-.39-.99-.63-1.74-.63-2.25.08-.04.2-.16.32-.32.16-.12.28-.2.43-.2-.55-.43-1.03-1.03-1.34-1.86-.32-.83-.59-1.82-.87-3-.32-1.14-.55-1.97-.83-2.57-.24-.55-.55-.83-.99-.83l.12-.95-1.26-2.57c-.79-2.41-1.54-4.03-2.25-4.86-.71-.87-1.66-1.34-2.92-1.5-1.22-.12-3.67-.2-7.34-.2-.71.55-1.7,2.96-3.04,7.18-1.3,4.26-1.93,6.95-1.93,8.05-.79,0-1.42.47-1.89,1.38-.51.91-.87,2.05-1.07,3.43-.24,1.38-.4,2.33-.55,2.8l-.51.55c-.43,1.7-.99,3.36-1.7,5.01-.71,1.66-1.18,2.76-1.38,3.36-.99,2.25-1.74,4.07-2.21,5.41-.95,2.37-1.93,5.8-2.96,10.26-.24.79-.63,2.21-1.22,4.34-.63,2.13-1.18,4.03-1.78,5.72l-.95,2.33c-.99,2.45-1.7,4.46-2.21,5.96-.51,1.54-.75,2.88-.75,4.11,1.58.55,2.8.91,3.71,1.11.91.16,2.01.28,3.28.28.95,0,1.58-.39,1.97-1.18.4-.79.67-1.89.91-3.39.12-1.14.36-2.05.63-2.76,1.42-3.24,2.37-5.57,2.84-6.91.51-1.38,1.11-3.43,1.82-6.12.47,0,2.84.12,7.11.32,2.09.24,4.14.32,6.12.32.91,0,1.74,0,2.41-.08.67-.08,1.22-.16,1.74-.24,1.26-.2,2.61-.32,4.03-.32,1.18,0,2.37.75,3.55,2.25,1.14,1.46,2.13,3.24,2.88,5.29.79,2.05,1.26,3.2,1.38,3.47.24.59.43,1.14.59,1.66s.36,1.03.59,1.54c.55,1.78,1.03,3.08,1.42,3.99.39.87.75,1.3,1.11,1.3.28,0,.75-.12,1.42-.32.67-.2,1.18-.32,1.54-.32.79,0,1.66.24,2.64.75.16.04.51.2,1.07.39.59.24,1.18.36,1.82.36,1.11,0,1.97-.16,2.61-.43.59-.28.87-.87.87-1.7-.91-2.33-1.93-4.66-3.04-6.99ZM343.03,15.67c.2,0,.67.91,1.42,2.76.75,1.82,1.11,2.88,1.11,3.16l-2.53,2.64c.36-.36.71-.63,1.14-.95.43-.28.79-.43,1.07-.51.79,0,1.26.43,1.42,1.38.2.91.28,2.01.28,3.28,0,2.17-1.3,4.38-3.91,6.55-.51-.47-.75-1.18-.75-2.09v-.63c0-.71.16-1.18.47-1.38.32-.24.79-.47,1.46-.71.67-.24,1.14-.59,1.34-.99-.63,0-1.46.12-2.45.39-.28.08-.59.16-.91.24-.32.08-.71.12-1.18.12,0-.43.12-1.03.36-1.7.24-.71.36-1.34.36-1.82-.91.55-1.46.83-1.7.83-.67,0-1.03-.75-1.03-2.33,0-.32,0-.71.08-1.03.08-.36.28-.59.63-.67-.4-.04-.87-.24-1.3-.55-.47-.32-.71-.67-.71-1.03l.12-.43,4.58-4.54h.63ZM342.48,42.36c-1.42,0-3.51.16-6.36.43-.71.08-1.58.12-2.64.2-1.07.08-2.25.12-3.59.12-2.61,0-3.91-.51-3.91-1.58l.08-.32c1.93-2.84,3.55-5.96,4.93-9.39,1.38-3.43,2.37-6.83,2.92-10.22l5.09,9.87c0,.55.2,1.34.63,2.37.39,1.03.71,1.7.83,1.97,1.34,3.08,2.01,5.29,2.01,6.55ZM339.95,16.74c-1.42,1.54-2.37,2.33-2.88,2.33-.28,0-.63-.36-1.1-1.11-.43-.75-.67-1.3-.67-1.66,1.54-1.26,3.91-1.89,7.11-1.89-.79.55-1.62,1.34-2.45,2.33ZM327.99,19.7c-.59,0-.95-.12-1.14-.32-.16-.2-.24-.55-.24-1.07,0-1.34.24-2.29.67-2.92.47-.59,1.18-1.14,2.17-1.62.43-.24.87-.47,1.34-.79.43-.32.83-.75,1.11-1.22h-2.64c.36-.24.59-.67.79-1.38.16-.71.32-1.46.36-2.21.24-1.34.47-2.37.75-3.08.28-.71.75-1.07,1.38-1.07.43,0,1.11.24,2.05.67.95.47,1.54.71,1.78.71l1.26-.12c0,.08.67.79,2.05,2.13,1.38,1.34,2.05,3.2,2.05,5.61l-7.82,2.64c-.87,1.7-2.05,3.2-3.59,4.46-1.58,1.26-3.24,2.13-4.97,2.64l-.12-.75c0-1.54.91-2.33,2.76-2.33ZM322.94,27.32c.55-.36,1.38-.63,2.49-.83.91-.16,1.62-.32,2.13-.55.47-.2.83-.59,1.07-1.14-.51,0-1.18.12-2.01.36-.87.24-1.58.39-2.13.39,0-.43.95-1.34,2.8-2.64,1.89-1.34,3.04-2.01,3.43-2.01h.75c0,2.72-2.88,5.8-8.68,9.2-.08,0-.2-.08-.36-.2-.2-.16-.28-.32-.28-.43,0-1.07.28-1.78.79-2.13ZM322.59,31.66c.47-.39,1.07-.83,1.7-1.26,1.7-1.14,2.92-2.17,3.71-3.08h.63c-.51,2.33-1.18,3.83-2.01,4.5-.87.67-2.45,1.03-4.78,1.03,0-.36.24-.75.75-1.18ZM319.19,37.07c.2-.71.47-1.38.79-2.05.32-.67.79-1.03,1.42-1.03h4.66c-1.07.79-2.37,1.66-3.95,2.61-1.58.95-2.72,1.62-3.36,1.97.08-.28.24-.79.43-1.5ZM325.43,36.32c0,.63-.39,1.26-1.22,1.82-.79.55-1.54.83-2.25.83,0-.55.16-1.03.51-1.42.36-.39.87-.71,1.5-.99.63-.28,1.07-.51,1.38-.63l.08.39ZM312.48,64.97c-.99,1.03-1.5,1.62-1.54,1.74h.83c0,.24-.08.59-.32,1.11-.2.55-.47.83-.83.83-.43,0-.71-.16-.83-.43-.08-.28-.16-.67-.16-1.18,0-1.07.36-2.13,1.07-3.28.71-1.11,1.58-1.7,2.57-1.7l.95.12c-.24.83-.79,1.78-1.74,2.8ZM315.84,56.49c-.87.75-1.62,1.3-2.25,1.66l-.12-.87c0-.2.32-.67.91-1.34.59-.71,1.22-1.07,1.86-1.07l1.38.08c-.28.32-.87.83-1.78,1.54ZM314.97,53.61c1.54-1.78,2.8-2.68,3.79-2.68h.75c-1.26,1.78-2.8,2.68-4.54,2.68ZM317.22,50.13c-.95.47-1.5.75-1.62.79l-.12-.63c0-.75.2-1.38.63-1.89.43-.47,1.03-.75,1.82-.75.91,0,1.42.28,1.58.75-.55.71-1.34,1.3-2.29,1.74ZM320.89,46.38h-2.76l2.76-2.53v2.53ZM318.91,43.86c-.95.55-1.62.99-2.05,1.26l-.12-1.26c0-1.58.43-2.61,1.34-3.12.87-.55,2.25-.83,4.07-.83h.63c-.28.79-.75,1.5-1.42,2.13-.67.63-1.5,1.22-2.45,1.82ZM326.34,49.22c-1.11.32-2.21.43-3.32.43h-.67c-.47,0-.79-.2-.95-.63.63-.47,1.62-1.07,2.96-1.74,1.34-.67,2.13-1.03,2.33-1.03.36,0,.67.16.91.39.24.24.4.59.4.99,0,.79-.55,1.3-1.66,1.58ZM330.01,47.49c.55-.43,1.18-.63,1.89-.55l1.38.2c-1.34,1.5-2.72,2.21-4.14,2.21,0-.75.28-1.38.87-1.86ZM339.36,49.46c-1.22.43-2.64.63-4.3.63l-2.72-.12c0-.71.28-1.22.87-1.58.63-.36,1.46-.75,2.61-1.26v1.26c.16-.28.59-.79,1.38-1.54.79-.75,1.38-1.11,1.82-1.11.39,0,1.03.12,1.86.36.79.28,1.3.59,1.54,1.03-.79,1.11-1.82,1.89-3.04,2.33ZM342.17,49.46c0-1.07.51-1.62,1.58-1.7-.12,1.14-.67,1.7-1.58,1.7ZM345.05,33.99c1.18-1.97,2.01-3.28,2.53-3.91.71,0,1.22.55,1.58,1.7.36,1.14.55,2.17.55,3.16,0,1.07-.36,2.05-1.07,2.96-.71.95-1.58,1.38-2.64,1.38-.16,0-.36-.2-.63-.63-.32-.39-.43-.79-.43-1.14l.12-.24,3.91-2.01c-.36,0-.99.12-1.89.32-.95.24-1.62.36-2.01.36-.32,0-.51-.2-.67-.51-.12-.32-.2-.47-.2-.47,0-.04.28-.36.87-.95ZM347.69,51.44c-.32-.2-.59-.55-.87-1.14,2.76-1.11,4.54-2.17,5.29-3.16-.71,0-1.74.32-3.16.95-1.42.71-2.57,1.07-3.39,1.07l-1.26-.12c.63-1.11,1.7-2.53,3.16-4.18,1.5-1.66,2.37-2.64,2.64-3v-.63h-3.28c.36-.91.91-1.7,1.7-2.33.79-.63,1.58-.99,2.45-.99.12.51.39,1.3.75,2.41.32,1.11.63,2.13.83,3.12.2.99.32,2.13.32,3.39,0,1.18-.36,2.29-1.07,3.32-.71,1.03-1.66,1.54-2.84,1.54-.59,0-.99-.08-1.26-.24ZM346.82,43.86c0-.87.51-1.26,1.5-1.26l-1.5,1.26ZM350.1,56.13c0-.51.16-.87.43-1.11.28-.24.79-.51,1.5-.79.99-.28,1.66-.71,2.01-1.3-.36.08-.95.16-1.7.28-.79.12-1.38.24-1.82.39-.28,0-.47-.12-.63-.36-.16-.2-.24-.32-.32-.32.28-.55,1.03-1.22,2.29-2.05,1.22-.79,1.86-1.26,1.93-1.3.63,0,.95.83.95,2.53v.51c0,.79-.4,1.82-1.22,3.08-.79,1.26-1.54,1.89-2.25,1.89-.79,0-1.18-.47-1.18-1.46ZM352.11,59.53c.24-.36.55-.87.95-1.54.43-.67.95-1.38,1.5-2.05.55-.71.99-1.07,1.26-1.07.63,0,.95.79.95,2.41,0,.71-.55,1.26-1.7,1.66-1.11.39-2.09.59-2.96.59ZM354.44,63.44c-.36,0-.71-.24-1.03-.75-.39-.47-.55-.91-.55-1.26,0-.63.67-1.14,1.97-1.58,1.3-.43,2.37-.63,3.24-.63v1.07l-3.39,3.04-.24.12ZM359.34,67.97c-2.29,0-3.55-.39-3.83-1.26l2.57-2.64c-1.03.51-1.97.75-2.88.75,0-.43.24-.87.63-1.34.43-.43.99-.87,1.66-1.26.67-.39,1.07-.63,1.22-.79,1.38,2.41,2.09,4.22,2.09,5.41,0,.79-.47,1.14-1.46,1.14Z"/>
    <path class="cls-1" d="M414.17,66.24c-.04-.51-.12-.91-.2-1.22-.28-1.26-.43-2.25-.43-2.96-1.34,0-3.12.24-5.41.63-2.68.59-4.97.87-6.87.87s-3.12-.28-3.79-.87l-6.79-.2c-1.5-.08-2.96-.12-4.46-.12s-2.68-.04-3.59-.08c0-.24-.04-.47-.16-.75-.12-.28-.16-.59-.16-.95,0-.59.2-.91.63-.99l-1.18-1.34c0-.16,0-.67-.08-1.62-.08-.91-.12-2.05-.12-3.39,0-3.59.36-8.92,1.07-15.99.71-7.03,1.07-12.4,1.07-15.99,0-5.29-.28-9.51-.75-12.71l-.43-2.21c-.43-2.84-.67-4.26-.75-4.34l-.71-.63h-8.49l-1.38,1.26c-.12.16-.2.67-.2,1.58,0,1.97.04,3.47.08,4.42.08.95.36,1.58.87,1.93l-.12,11.64c0,8.21.47,13.7,1.38,16.42-.47,2.57-.95,5.8-1.38,9.71-.39,3.91-.71,6.55-.83,7.89h.51v10.58c0,2.13,1.22,3.55,3.71,4.26,2.49.75,5.57,1.14,9.32,1.14l6.16-.12,3.47.12c1.86.12,3.32.2,4.34.2,3.91,0,6.99-.79,9.32-2.45l3.95.67c.28,0,.75-.36,1.46-1.03.71-.67,1.07-1.3,1.07-1.97,0-.39-.04-.87-.12-1.42ZM375.52,22.66c.35-.28,1.07-.43,2.13-.43l.12-.32c0-.39-.36-.75-1.03-1.03-.67-.28-.99-.71-.99-1.3.2-.12.79-.63,1.78-1.54.99-.87,1.97-1.3,2.96-1.3,0,1.97-.43,3.91-1.38,5.84-.91,1.89-2.25,3.12-4.03,3.67-.04-.2-.08-.79-.08-1.78,0-.91.16-1.54.51-1.82ZM375.09,17.05c.43-.43,1.03-.63,1.82-.63h.32c-.12.36-.32.55-.51.63-.24.08-.55.12-.95.12l-.67-.12ZM376.47,34.74c.24-.2.75-.75,1.54-1.58.83-.87,1.38-1.26,1.78-1.26v2.84h-3.32ZM377.65,36.75c-.08.08-.28.36-.63.79-.36.47-.79.71-1.26.71v-1.5h1.89ZM376.86,31.97c-.63.16-1.18.24-1.78.24v-.75l2.57-.63.12.32c0,.39-.32.71-.91.83ZM375.36,47.57c.24-.59.55-1.11.91-1.62.08-.04.28-.36.59-.87.32-.55.47-1.07.47-1.54,0-.24-.28-.43-.79-.59-.55-.16-.79-.39-.79-.67,0-.79.2-1.5.63-2.13.39-.63.99-1.22,1.78-1.74.79-.55,1.3-.91,1.62-1.14l.08,4.66c0,2.41-.28,4.22-.83,5.49-.59,1.22-1.93,1.82-4.03,1.82,0-.55.12-1.11.36-1.66ZM377.22,29.57c-.99,0-1.7-.08-2.13-.24l4.7-5.09h1.03c0,1.93-.2,3.28-.63,4.11-.4.79-1.42,1.22-2.96,1.22ZM378.48,3.91c1.34,0,2.01,2.84,2.01,8.49,0,1.46-.43,2.37-1.3,2.68-.91.32-2.29.47-4.18.47,0-1.03.43-2.29,1.38-3.67.71-1.42,1.11-2.37,1.26-2.76-.24-.51-.47-.75-.75-.75-.16,0-.28.04-.43.12-.12.04-.32.08-.51.08-.79,0-1.22-1.3-1.38-3.91,2.33-.47,3.63-.75,3.91-.75ZM374.22,58.97c-.28-.63-.39-1.07-.39-1.38,0-2.29.08-3.95.24-4.89.12-.95.59-1.7,1.34-2.25.79-.51,2.05-.79,3.83-.79,0,1.62-.24,2.88-.67,3.71-.47.87-1.42,1.38-2.8,1.58h2.96c0,.59-.2,1.22-.55,1.93-.36.71-.51,1.14-.51,1.38.55.39.83.75.83,1.03,0,.16-.24.32-.67.55-.47.2-.91.32-1.34.32.28.47.91.95,1.93,1.38-.87,1.07-1.97,1.93-3.32,2.64-.36-2.13-.51-3.47-.51-4.03,0-.16-.12-.55-.36-1.18ZM379.11,64.19c0,.83-1.34,1.26-4.03,1.26l3.32-2.76c.12.08.28.28.47.63.16.36.24.63.24.87ZM376.59,68.09c-.91,0-1.42-.24-1.5-.75.36-.75,1.07-1.3,2.09-1.58,1.03-.28,2.09-.43,3.24-.43l.63.12c-.59,1.18-1.14,1.93-1.7,2.21-.59.28-1.5.43-2.76.43ZM387.01,67.46c-.75.87-1.42,1.26-2.05,1.26-.2-.36-.83-.59-1.86-.79-1.03-.16-2.01-.28-2.92-.28,0-1.34,1.58-2.01,4.78-2.01v1.18c.79-.51,1.7-.75,2.76-.75h.51c-.08.08-.47.55-1.22,1.38ZM394.27,68.72c-.16,0-.4-.16-.79-.47s-.63-.63-.71-.91c-.67,1.07-2.05,1.62-4.11,1.62,0-2.21,2.76-3.32,8.25-3.32,0,.59-.32,1.22-.91,1.97-.59.75-1.18,1.11-1.74,1.11ZM407.02,67.94c-2.76.55-4.89.79-6.4.79-.08-.08-.2-.2-.32-.36-.16-.2-.24-.32-.32-.39-.36,0-.87.16-1.54.43s-1.11.43-1.34.43l-1.03-.12,1.89-1.89c1.54,0,3.83-.16,6.79-.43,2.8-.28,4.97-.43,6.43-.43,0,.79-1.38,1.46-4.18,1.97Z"/>
    <path class="cls-1" d="M467.5,64.34c-.16-.67-.59-1.22-1.22-1.66-.2.08-.43.2-.67.39-.24.16-.47.28-.71.36-.12-.36-.32-.59-.55-.67-.28-.12-.59-.16-1.03-.16h-.63l-1.5.08,1.18-.51-1.38-.12c-.71,0-1.11.24-1.14.63l-.75-.51c-.08-.08-.75-.2-2.01-.39-1.26-.16-2.37-.24-3.28-.24-1.22,0-3.16.36-5.84,1.07-2.41.55-4.03.83-4.86.83-1.89,0-4.14-.08-6.75-.28-2.57-.16-3.87-.32-3.95-.47l-.75-1.14v-19.7c0-.43.28-.63.83-.63l1.07.08,2.96-.08c8.92-.51,16.22-.75,21.95-.75l1.38-1.18c-.08-.36-.12-1.82-.12-4.42,0-.63.04-1.18.12-1.66.04-.47.24-.83.51-1.11l-1.26.63c-.28-.71-.71-1.46-1.26-2.21h-11.88c0,.71-.28,1.03-.83,1.03l-.24-.08h.12c-.16,0-.47-.24-.95-.75-.63,0-1.34.12-2.13.32-2.09.36-3.99.51-5.61.51l-3.39-.2-1.26-1.26.75-6.16c0-.71-.16-1.82-.43-3.36-.28-1.42-.43-2.53-.43-3.32,0-.83.08-1.54.16-2.09.12-.59.36-1.26.71-2.01,6.12-1.58,13.11-2.33,20.96-2.33,3.04,0,6.04.08,9,.32l2.53-.63-.08-1.18c0-.83.12-1.78.4-2.76.36-.91.55-1.97.55-3.16-.08-.2-.2-.47-.39-.75-.16-.28-.32-.47-.47-.63-4.66-.43-7.42-.63-8.37-.63l-3.47.2c-3.83.32-7.22.43-10.26.43-.43.51-1.07.75-1.93.75-1.46,0-2.61-.04-3.36-.12-.79-.08-1.66-.28-2.57-.63h-13.11v28.07c.55,2.41.91,4.86,1.1,7.42.16,2.53.24,5.49.24,8.88v4.34c0,3.12-.08,6.32-.32,9.63-.04,1.07-.12,2.41-.2,4.03-.08,1.62-.12,3.51-.12,5.61.28.79.99,1.34,2.13,1.7,1.11.36,2.17.55,3.16.55h27.36c1.54.71,2.84,1.14,3.91,1.38,1.07.2,2.49.32,4.34.32l2.84-.12c.99-1.07,1.5-3.32,1.5-6.79,0-1.11-.08-2.01-.28-2.68ZM453.8,4.54h4.74c0,.71-.32,1.26-.99,1.62-.67.36-1.38.51-2.17.51-.55,0-.99-.08-1.26-.28-.28-.16-.43-.51-.43-1.11,0-.28.04-.51.12-.75ZM442.15,5.29v.63h-.75l.75-.63ZM452.58,35.21c.59-.59,1.26-.99,1.93-1.22.59,1.22,1.26,2.29,2.01,3.2h-5.29c.28-.71.75-1.38,1.34-1.97ZM446.69,34.62h.75c0,.51-.08,1.18-.24,2.01-.12.87-.32,1.26-.51,1.26h-3.28l3.28-3.28ZM439.67,35.65c1.07-.83,2.25-1.18,3.51-1.11l1.5.08c-.55.99-1.54,1.89-2.92,2.72-1.38.79-2.61,1.22-3.75,1.22,0-1.14.55-2.13,1.66-2.92ZM437.81,35.37c0,.79-.51,1.38-1.5,1.86-.99.47-1.89.67-2.76.67v-1.14h-3.91c0-.91.24-1.38.75-1.38h7.42ZM437.26,8.05c.24-.43.55-.71.95-.87l.12.75c0,.79-.39,1.18-1.14,1.18-.24,0-.36-.08-.36-.24.08-.12.24-.39.43-.83ZM424.47,8.49l.71-3.2c0-.08,1.7-.08,5.09-.08,2.41,0,4.18.24,5.29.71-.04.36-1.34,1.11-3.87,2.25-2.49,1.11-4.03,1.7-4.58,1.7h-.75l1.46-2.68c-1.54.87-2.68,1.3-3.36,1.3ZM429.76,28.7c0,1.86-1.18,2.76-3.51,2.76,0-.79.4-1.42,1.11-1.97.75-.51,1.54-.79,2.41-.79ZM425.81,11.64c.59-.36,1.26-.51,2.01-.51h.43c-.36.55-.83,1.07-1.42,1.46-.59.43-1.22.63-1.86.63,0-.67.28-1.22.83-1.58ZM426.88,16.54c-1.1,0-1.7-.32-1.7-.87,0-.12.43-.47,1.22-1.07.83-.55,1.42-1.07,1.86-1.46l.12,1.58c0,1.26-.24,2.25-.71,2.96-.43.71-1.26,1.54-2.49,2.53l-.08-.95c0-.55.12-.95.39-1.22.28-.24.67-.47,1.18-.67.47-.2.87-.51,1.14-.95l-.95.12ZM429.32,19.5c0,1.18-.04,1.97-.16,2.37-.12.39-.39.67-.87.79-.43.16-1.3.24-2.57.24,1.18-2.29,2.41-3.39,3.59-3.39ZM425.18,24.79c0-.08.24-.2.71-.32.43-.16.87-.24,1.22-.24.39,0,.87.12,1.34.28.51.2.75.36.75.47,0,.87-.47,1.74-1.46,2.64-.99.95-1.86,1.38-2.57,1.38v-4.22ZM425.61,33.91c0-.67.39-1.03,1.22-1.18.83-.16,1.78-.2,2.92-.2v.83l-3.4,3.39c-.08-.2-.2-.59-.43-1.18-.2-.55-.32-1.11-.32-1.66ZM427.04,49.74c.2-.55.63-.79,1.34-.79,0,2.01-.55,3.04-1.58,3.04,0-.99.08-1.74.24-2.25ZM426.68,47.13c-.16-.28-.24-.51-.32-.63,0-.36.2-.59.59-.71.36-.08.71-.16.99-.16,0,1.22-.28,1.93-.83,2.13-.16-.12-.32-.36-.43-.63ZM427.94,43.58c-.28.24-.83.36-1.7.36,0-.67.32-1.3.95-1.78.63-.51.99-.79,1.07-.87l.12.75c0,.79-.16,1.3-.43,1.54ZM427.9,39.67c-.47.24-.99.36-1.54.36,0-1.07.75-1.58,2.21-1.58,0,.55-.24.99-.67,1.22ZM426.09,57.08c-.04-.2-.04-.47-.04-.83,0-2.21.47-3.32,1.46-3.32l.12-.08c.16,0,.28.24.43.67.12.47.2.87.2,1.22s-.16.91-.47,1.66c-.32.71-.55,1.11-.67,1.11h-.95c0-.08-.04-.24-.08-.43ZM427.94,61.54c0,.47-.12.95-.36,1.38-.28.39-.67.63-1.22.63v-2.01h1.58ZM427.11,68.72c-.08-.08-.24-.2-.43-.39-.2-.24-.32-.47-.32-.75v-.24c.08-.04.28-.55.67-1.46.39-.95.79-1.5,1.22-1.7v1.14h1.7c0,.36-.43.99-1.3,1.86-.91.91-1.42,1.42-1.54,1.54ZM430.86,68.37c-.39.24-1.03.36-1.86.36,1.07-.83,2.17-1.5,3.39-2.01-.63.87-1.14,1.42-1.54,1.66ZM434.3,68.84l-.75-.12c.24-.2.51-.39.87-.51.36-.16.63-.24.83-.24h.32c-.2.59-.63.87-1.26.87ZM451.82,65.45c.24-.08.51-.12.79-.12h.63c-.12.43-.71.63-1.78.63h-.24c.16-.28.36-.43.59-.51ZM442.71,68.49c-.59.24-1.46.36-2.57.36l-1.93-.12c.43-.71,1.07-1.22,1.93-1.58.83-.36,1.7-.51,2.64-.51l1.26.08c-.28.91-.71,1.5-1.34,1.78ZM447.96,68.09c-.55.43-.99.63-1.26.63.36-.47.79-.95,1.26-1.42.51-.47.83-.67.95-.67l.32.08c-.28.51-.71.95-1.26,1.38ZM453.64,67.82c-.47.12-1.26.16-2.41.16l2.57-2.01h6.55l-5.17,2.01v-1.26c-.59.63-1.11,1.03-1.54,1.11ZM459.44,69.12c-.75.43-1.5.67-2.25.67v-1.07c0-.2.43-.47,1.3-.83.87-.36,1.5-.55,1.86-.55h.83c-.4.71-.99,1.3-1.74,1.78ZM463.94,69.36c-.36.87-1.11,1.3-2.33,1.3v-4.7h2.88c0,1.42-.2,2.57-.55,3.39Z"/>
    <path class="cls-1" d="M533.85,70.9c-.28-.79-.43-1.22-.43-1.22,0,0-.04-.12-.08-.39-.43-3.39-.67-7.7-.67-12.95v-3.71c0-2.17.24-5.37.67-9.63.47-3.95.71-7.34.71-10.14,0-2.13-.08-4.38-.32-6.75-.2-2.33-.35-3.91-.39-4.58-.51-4.26-.75-7.97-.75-11.13,0-.55-.12-1.34-.39-2.37-.24-1.03-.36-1.74-.36-2.09,0-.43.08-.91.2-1.46.16-.55.24-.99.24-1.26,0-.67-.43-1.07-1.22-1.22-.83-.2-1.93-.28-3.36-.28-1.7,0-3.04.2-4.03.59-.99.39-1.46,1.26-1.46,2.68,0,1.86-.12,3.59-.32,5.29,0,.51-.08,1.3-.16,2.45-.12,1.14-.16,2.13-.16,2.96l.63,2.57.08,14.05c0,9.91-.32,14.84-.95,14.84-.71,0-2.37-1.66-4.97-4.93-2.61-3.28-5.25-6.79-7.89-10.58-2.64-3.79-3.95-5.84-3.95-6.2-1.22-2.84-2.61-5.53-4.15-8.05-1.54-2.53-3.75-5.96-6.55-10.26-.36-.51-1.78-2.64-4.22-6.47-1.38-.28-2.49-.43-3.36-.51-.87-.08-1.86-.12-2.92-.12-.91,0-1.78.04-2.57.12-.83.08-1.82.24-2.92.51l.08,2.45c0,2.05-.16,4.18-.51,6.43-.28,2.72-.43,4.82-.43,6.36,0,1.38.16,2.84.47,4.42.32,1.58.67,3.08,1.03,4.5,0,5.76-.24,12.51-.75,20.21-.43,8.49-.63,14.8-.63,18.95.08,1.14.16,2.57.32,4.3.16,1.74.28,3.16.43,4.3.63.12,1.22.28,1.86.43.59.12,1.03.2,1.3.2,1.97,0,3.67-.16,5.09-.43,1.42-.28,2.13-.99,2.13-2.09,0-1.7.24-3.79.71-6.28.08-.43.24-1.26.43-2.61.24-1.3.32-2.53.32-3.75,0-4.38-.24-9.59-.75-15.67-.04-1.07-.2-3.24-.4-6.51-.24-3.28-.32-6.28-.32-9.04.36-2.68.67-4.03,1.03-4.03.59,0,1.82,1.18,3.67,3.59,1.86,2.41,3.75,5.05,5.61,8.01,1.89,2.92,3.04,4.93,3.43,6.08.36.91,1.22,2.13,2.57,3.59.99.99,1.66,1.78,2.01,2.33.2.43.47,1.07.83,1.89.36.87.75,1.62,1.22,2.29.47.67,1.07,1.03,1.86,1.03.51.75,1.07,1.89,1.7,3.36.79,1.86,1.5,3.24,2.21,4.18.71.99,1.62,1.46,2.76,1.46,0,.63.04,1.03.16,1.14.12.16.47.24,1.11.24,0,1.34.39,2.49,1.18,3.43.75.95,1.86,1.97,3.28,3.12.16.12.63.55,1.42,1.22.83.67,1.46,1.34,1.97,2.05.71.2,1.93.47,3.71.87,1.74.32,3.2.51,4.34.51,0-.71-.16-1.46-.43-2.29ZM524.73,12.08h2.01c-.63-.2-1.11-.71-1.46-1.42-.36-.75-.55-1.46-.55-2.17l.75-2.57h3.91c.16.08.28.24.43.47.12.28.2.51.2.71,0,.47-.08,1.18-.2,2.09-.16.95-.28,1.58-.43,1.93l-1.26.63.63.63-3.28,3.28h-.75v-3.59ZM524.73,18.24l4.03-3.83h.75c0,.28-.71,1.34-2.13,3.24-1.42,1.86-2.29,2.8-2.64,2.8v-2.21ZM529.63,22.34c-1.93,0-2.88-.36-2.88-1.07,0-.83.67-2.05,2.01-3.71.55,0,.87,1.62.87,4.78ZM525.37,23.68c.36-.63.63-.91.87-.91.43,0,1.03.12,1.78.36.79.28,1.26.59,1.38,1.03l-3.16,3.16h-.75c-.16,0-.32-.32-.47-.99-.2-.67-.28-1.18-.28-1.54.08-.16.28-.51.63-1.11ZM487.98,5.09c.16,0,.32.16.55.51.2.36.32.63.32.87-.28.28-.95.67-1.93,1.22-.99.51-1.5.83-1.58.87l-.32-.08c.35-.71.83-1.46,1.38-2.25.55-.75,1.11-1.14,1.58-1.14ZM481.63,3.2l1.5.71-2.13,1.3c-.36-.71-.51-1.14-.51-1.3,0-.47.4-.71,1.14-.71ZM482.34,6.36c1.22-1.26,2.33-1.89,3.32-1.89l.63.08-5.29,5.84c-.08,0-.16-.08-.32-.2-.12-.16-.2-.32-.2-.43,0-.99.59-2.13,1.86-3.39ZM482.22,11.29c1.18-.59,2.33-.91,3.43-.91h.63l-5.29,3.28h-.51c0-.99.55-1.78,1.74-2.37ZM485.02,65.33l-3.4,3.2h-1.7c0-1.62.43-2.68,1.22-3.2.83-.47,2.09-.71,3.87-.71v.71ZM484.98,63.16c-.59.2-1.46.28-2.61.28-.83,0-1.42-.28-1.7-.79-.28-.51-.43-1.26-.43-2.17l.12-2.13c0-1.62.24-2.76.75-3.43.47-.67,1.54-1.11,3.16-1.3,0,.36-.36,1.3-1.03,2.84-.67,1.42-.99,2.25-.99,2.53l.12,2.01c0,.71-.24,1.3-.75,1.7,1.14,0,2.49-.67,4.03-2.01.08.16.12.32.16.55.04.2.08.39.08.51,0,.79-.32,1.26-.91,1.42ZM482.38,45.75c.28-.99,1.38-2.29,3.28-3.91.08.12.12.32.16.59.04.24.08.43.08.55,0,1.86-1.18,2.76-3.51,2.76ZM486.09,49.3c.12.39.2.71.2.99,0,1.58-1.11,2.33-3.36,2.33,0-1.46.91-2.92,2.72-4.34.16.32.28.63.43,1.03ZM484.35,31.3c-.55.51-1.26.79-2.17.79,0-.71.32-1.34.95-1.97.63-.59,1.3-.87,2.01-.87,0,.83-.28,1.5-.79,2.05ZM485.46,32.92c0,.95-.28,1.7-.79,2.33-.55.67-1.3,1.34-2.29,2.01-.47-1.46-.75-2.25-.75-2.33,0-.75.43-1.3,1.22-1.58.83-.28,1.7-.43,2.6-.43ZM485.02,27.32c0,.24-.47.63-1.42,1.22-.95.59-1.66.99-2.05,1.11,0-1.97,1.14-2.96,3.47-2.96v.63ZM482.02,41.25c.24-.51.71-.87,1.46-1.07.75-.16,1.26-.28,1.54-.36v.63l-3.4,3.28c0-1.14.12-1.97.4-2.49ZM483.44,38.76c0-.87.51-1.82,1.58-2.84.35.12.55.28.63.47.08.16.12.47.12.87,0,1.03-.79,1.5-2.33,1.5ZM484.19,23.21c-.99.99-1.86,1.7-2.57,2.21l-.63-.63v-6.55c.43-.36,1.11-.75,2.01-1.18.91-.43,1.5-.71,1.7-.83,0,.83.08,1.66.28,2.49.16.79.39,1.42.67,1.86,0,.75-.47,1.62-1.46,2.64ZM482.02,48.04c.67-.28,1.18-.39,1.54-.39h.71l-2.64,2.64c-.08-.12-.16-.32-.32-.55-.12-.28-.24-.51-.32-.71,0-.39.36-.75,1.03-.99ZM485.81,57.55c-.59.95-1.38,1.42-2.37,1.42,0-.91.32-1.86.95-2.84.63-.99,1.42-1.46,2.33-1.38,0,.91-.32,1.86-.91,2.8ZM481,16.3h-.51c.99-1.26,2.61-2.76,4.86-4.54,2.25-1.78,3.91-2.64,4.89-2.64.28,0,.51.28.79.83.24.59.39.95.47,1.18l-10.5,5.17ZM496.67,20.88l-1.89,2.64c-.99-.87-1.62-1.62-1.86-2.29-.24-.67-.36-1.7-.36-3.12-.71,0-1.26-.12-1.62-.39-.36-.24-.71-.71-1.11-1.46-.4-.75-.71-1.38-.99-1.86,1.89-1.26,3.04-1.93,3.39-2.01l3.16,3.28c3.12,4.18,4.66,7.14,4.66,8.92,0,.63-1.38.95-4.11.95,0-.59.12-1.26.39-2.09.28-.79.43-1.42.43-1.86l-.12-.71ZM499,28.82c-.28,0-.79-.67-1.58-2.01.43-.43.91-.71,1.5-.79.55-.12,1.26-.16,2.09-.16,0,.71-.16,1.38-.51,2.01-.36.63-.87.95-1.5.95ZM501.88,32.72c-.43,0-.87-.2-1.26-.59-.43-.39-.67-.99-.67-1.86,0-.39.24-.75.71-1.03.47-.32.79-.47.99-.55.87.51,1.46.91,1.82,1.26.36.36.51.83.51,1.38,0,.51-.2.87-.63,1.07-.43.2-.91.32-1.46.32ZM503.89,36.63c-.95-.47-1.38-1.11-1.38-1.89s.24-1.26.75-1.42c.47-.2,1.18-.28,2.09-.28,0,1.7-.47,2.88-1.46,3.59ZM507.48,42.59c-.2,0-.43-.24-.71-.71-.24-.43-.36-.83-.36-1.11s.32-.55.95-.79c.63-.24,1.03-.47,1.18-.71-.08,0-.28.04-.63.12s-.79.12-1.3.12c-.67,0-1.22-.12-1.58-.32-.36-.24-.51-.67-.51-1.38.28-.16.63-.63,1.11-1.42.47-.83.75-1.22.91-1.22.75,0,1.42.47,1.89,1.42.51.95.75,1.86.75,2.68,0,.63-.16,1.34-.43,2.13-.28.79-.71,1.18-1.26,1.18ZM513.09,50.29s.2-.71.63-2.01c-.2.24-.47.39-.83.55-.36.12-.63.2-.87.2-.63,0-.95-.32-.95-.95,0-.36.04-.71.16-1.07.12-.36.16-.63.16-.83-.83,0-1.42-.2-1.78-.55-.36-.36-.55-.99-.55-1.89,0-.83.12-1.62.4-2.33.24-.71.67-1.07,1.3-1.07.08,0,.2.04.32.12l3.28,6.55c.16-.08.28-.08.32-.08.28.12.75.47,1.38.99.63.51.95,1.03.95,1.42,0,.51-.28.91-.83,1.18-.55.28-.87.39-.87.39h-.95c-.83,0-1.26-.2-1.26-.63ZM516.92,54.95v-2.09c-.16.12-.36.28-.59.47-.24.16-.47.28-.71.28-.12-.16-.24-.32-.36-.51-.12-.16-.2-.32-.28-.47,0-.55.43-1.11,1.22-1.62.83-.55,1.54-.79,2.17-.79v1.78c.28,0,.55-.04.75-.08.2-.08.4-.12.51-.12.24,0,.36.16.43.43.08.28.12.71.12,1.38-.43.28-.99.55-1.7.87-.71.32-1.22.47-1.58.47ZM519.88,61.62c0-1.11.47-2.09,1.46-2.88.99-.83,2.13-1.46,3.39-1.86l.12.39c0,.79-.63,1.7-1.86,2.76-1.22,1.07-2.29,1.58-3.12,1.58ZM522.52,64.38c0-.63.2-1.07.59-1.26.36-.2.91-.36,1.62-.43,0,1.14-.75,1.7-2.21,1.7ZM529.39,66.32c0,1.46-.16,2.21-.51,2.21h-.12l-2.53-.55v-1.26l3.16-1.38v.99ZM528.33,63.87c-.75.55-1.7.83-2.84.83l3.28-3.28h.75c0,1.07-.39,1.89-1.18,2.45ZM528.76,57.95c-.91,2.33-2.64,3.47-5.17,3.47.12-.28.55-.91,1.26-1.89,1.62-2.49,2.45-3.99,2.45-4.58-1.22,0-2.64.63-4.3,1.82-1.66,1.22-2.6,1.86-2.8,2.01l-2.57-2.64c.35-.43.99-.83,1.82-1.26.87-.43,1.38-.67,1.58-.75.43.28.63.63.63,1.07l-.08.32c1.07,0,1.86-.28,2.37-.79.51-.55,1.03-1.38,1.54-2.49.47-1.07.99-1.86,1.54-2.41.51-.51,1.3-.79,2.37-.79.51,0,.75.43.75,1.26,0,2.76-.47,5.29-1.38,7.66ZM530.02,47.01c-.39.71-1.07,1.34-2.01,1.93-.91.55-1.74.83-2.53.83v-5.29h4.03c0,.2-.24.59-.67,1.22-.47.59-.91,1.03-1.34,1.3h2.53ZM529.67,37.9c-.87,1.58-1.62,2.68-2.17,3.32.35-.24.79-.43,1.34-.59.51-.16.91-.28,1.18-.28v2.64h-4.54c.16,0,.32-.16.51-.47.24-.32.28-.55.24-.67-.16-.36-.36-.63-.63-.79-.32-.2-.51-.39-.63-.63-.16-.28-.24-.83-.24-1.66,0-3.2.24-5.45.75-6.79.79-.75,1.18-1.22,1.26-1.38l-.08-.51h-.75c0-.79.43-1.66,1.3-2.61.91-.95,1.74-1.42,2.49-1.42.16,0,.36.16.63.47.32.32.43.59.43.79,0,.51-.16.91-.47,1.18-.32.28-.71.55-1.14.79-.47.24-.83.51-1.03.79h2.53c0,1.18-.36,2.37-1.11,3.47-.71,1.14-1.66,2.17-2.8,3.08v1.18c.79-.08,1.5-.63,2.13-1.7.36-.55.67-.99.95-1.22.28-.24.67-.36,1.14-.36,0,.71-.43,1.82-1.3,3.36Z"/>
    <path class="cls-1" d="M573.37,67.9l-.36.08v.55h1.18c-.43-.43-.71-.63-.83-.63ZM573.37,67.9l-.36.08v.55h1.18c-.43-.43-.71-.63-.83-.63ZM573.37,67.9l-.36.08v.55h1.18c-.43-.43-.71-.63-.83-.63ZM573.37,67.9l-.36.08v.55h1.18c-.43-.43-.71-.63-.83-.63ZM573.37,67.9l-.36.08v.55h1.18c-.43-.43-.71-.63-.83-.63ZM573.37,67.9l-.36.08v.55h1.18c-.43-.43-.71-.63-.83-.63ZM573.37,67.9l-.36.08v.55h1.18c-.43-.43-.71-.63-.83-.63ZM573.37,67.9l-.36.08v.55h1.18c-.43-.43-.71-.63-.83-.63ZM573.37,67.9l-.36.08v.55h1.18c-.43-.43-.71-.63-.83-.63ZM573.37,67.9l-.36.08v.55h1.18c-.43-.43-.71-.63-.83-.63ZM573.37,67.9l-.36.08v.55h1.18c-.43-.43-.71-.63-.83-.63ZM573.37,67.9l-.36.08v.55h1.18c-.43-.43-.71-.63-.83-.63ZM573.37,67.9l-.36.08v.55h1.18c-.43-.43-.71-.63-.83-.63ZM573.37,67.9l-.36.08v.55h1.18c-.43-.43-.71-.63-.83-.63ZM573.37,67.9l-.36.08v.55h1.18c-.43-.43-.71-.63-.83-.63ZM573.37,67.9l-.36.08v.55h1.18c-.43-.43-.71-.63-.83-.63ZM573.37,67.9l-.36.08v.55h1.18c-.43-.43-.71-.63-.83-.63ZM573.37,67.9l-.36.08v.55h1.18c-.43-.43-.71-.63-.83-.63ZM592.83,43.9c-1.62-2.21-3.63-4.11-6.08-5.64-2.45-1.58-4.86-2.61-7.26-3.08-2.25,0-4.11-.28-5.57-.87-1.42-.55-3-1.42-4.7-2.64-2.21-1.46-4.18-2.49-6.04-3.08l-1.38.12c-.83,0-2.01-.51-3.47-1.54-1.5-1.03-2.8-2.21-3.87-3.59-1.11-1.38-1.66-2.61-1.66-3.67,0-3.59,1.58-6.2,4.7-7.86,3.16-1.66,6.67-2.53,10.54-2.53,2.13,0,4.18.43,6.2,1.22,2.01.83,4.66,2.05,7.89,3.67,2.92,1.42,4.74,2.29,5.53,2.64.28,0,.71-.47,1.38-1.42.63-.95.95-1.62.95-1.97v-7.82l-1.93-2.01c-.04-.08-1.26-.36-3.63-.83-2.37-.43-4.42-.79-6.2-1.11-2.05,0-3.67-.12-4.82-.36-1.18-.24-2.05-.36-2.61-.36-4.58,0-8.88.59-12.87,1.78-3.99,1.22-7.07,3.24-9.28,6.16-.28.39-.79,1.18-1.5,2.25-.75,1.11-1.42,2.33-2.01,3.63-.63,1.3-.91,2.68-.91,4.18,0,3.24.63,6.12,1.89,8.61,1.26,2.53,3.24,4.34,5.92,5.45l28.7,12.51c1.26.51,2.37,1.7,3.28,3.59.95,1.89,1.38,3.63,1.38,5.21,0,3.67-1.97,6.24-5.96,7.78-3.99,1.5-8.09,2.29-12.36,2.29-.28,0-.71-.16-1.26-.43-.55-.28-1.5-.43-2.76-.43l-2.53.12c-.08-.43-.51-.63-1.38-.63-.47,0-.91.04-1.22.08-.32.08-.55.12-.67.12l-9.12-5.29c-.36,0-.67.75-.95,2.21-.43,1.58-.87,2.8-1.34,3.67-.43.87-1.18,1.3-2.25,1.3.63,1.7,1.62,3.2,3,4.5,1.38,1.3,3,1.97,4.82,1.97.16,0,.28-.04.43-.12.16-.04.32-.08.51-.08.16,0,.28.04.43.2,1.86.36,4.38.67,7.62.99,3.24.32,6.16.51,8.68.51,2.21,0,4.3-.24,6.36-.71,2.05-.47,4.26-1.14,6.67-2.05.08-.08.2-.2.32-.32.16-.16.28-.24.32-.32,2.84-.43,4.86-.99,6.04-1.7,1.22-.71,2.05-1.62,2.49-2.72.47-1.07,1.14-3.32,2.09-6.71.2-1.18.51-2.25.95-3.2.04-.2.24-.79.51-1.74.28-.95.43-1.93.43-3,0-2.41-.83-4.74-2.45-6.95ZM582.76,9.75l-.08-.24c0-.2.12-.43.36-.67.24-.24.47-.39.67-.47h.32l-1.26,1.38ZM569.89,4.3c.2-.28.36-.39.47-.47,2.13,0,5.61.39,10.46,1.26,4.82.83,7.22,1.54,7.22,2.09l-1.34,5.21c-.79-.2-1.34-.47-1.62-.75s-.39-.71-.39-1.26c0-.28.12-.79.36-1.5.24-.67.36-1.22.36-1.58l-.71-.12c-.71.36-1.38.67-1.97.91-.59.28-.99.43-1.22.47v-2.09l-2.01,1.89-2.01-1.89c-.08.36-.2.59-.36.67-.2.12-.51.16-1.03.16-.55,0-1.07-.2-1.58-.63-.47-.43-.83-.95-.95-1.58-.08.55-.67.83-1.82.83h-.51c-1.07,0-1.58-.36-1.58-1.03,0-.16.08-.36.24-.59ZM567.09,4.7c.71-.08,1.22-.16,1.62-.16,0,.36-.32.67-.87.91-.55.24-1.07.39-1.5.39-.12-.08-.32-.2-.63-.36-.28-.12-.47-.28-.63-.39.63-.16,1.3-.28,2.01-.39ZM556.71,6.51c1.34-.51,2.49-.79,3.39-.79,0,.63-.59,1.26-1.74,1.86-1.18.59-2.09.91-2.8.91-.59,0-.87-.08-.87-.24,0-.63.67-1.18,2.01-1.74ZM551.06,11.37c.67-.79,1.42-1.34,2.25-1.62,0,1.18-.28,2.17-.87,2.96-.63.79-1.42,1.14-2.41,1.14,0-.83.36-1.66,1.03-2.49ZM550.67,14.72v.95h-2.53c.16-.63.99-.95,2.53-.95ZM547.31,20.76h2.33c0,1.42-.39,2.13-1.18,2.13s-1.14-.71-1.14-2.13ZM550.16,26.05h-1.5v-.63h1.5v.63ZM549.8,23.88c-.32.2-.71.28-1.14.28l-.51-.12,2.01-1.14.12.2c0,.36-.16.63-.47.79ZM549.84,18.4c-.28.43-.67.67-1.18.67-.32,0-.63-.24-.87-.67-.28-.47-.39-.95-.39-1.46h2.88c0,.51-.16.99-.43,1.46ZM550.67,27.43c.08-.36.24-.67.47-1.03.28-.32.47-.47.59-.47.16,0,.32.08.55.24.2.12.36.36.51.63-.2.47-.67.75-1.38.75l-.75-.12ZM553.31,30.08c-.12-.16-.39-.32-.83-.47-.43-.2-.63-.36-.63-.47l.12-.12c0-.28.32-.51.99-.75.67-.2,1.34-.32,1.97-.32,0,1.42-.55,2.13-1.62,2.13ZM555.33,30.51c.08-.16.16-.39.28-.75.12-.36.36-.51.71-.51.39,0,.83.12,1.26.36.39.24.63.55.63.91h-2.88ZM562.04,32.76c-.39.32-.63.47-.75.47-.28,0-.79-.16-1.42-.47-.71-.32-1.14-.55-1.34-.79l3.28-.63.75.63c0,.24-.2.47-.51.79ZM563.97,33.99c-.59-.12-.91-.63-.91-1.46,2.41,0,3.63.55,3.63,1.7-1.22,0-2.13-.08-2.72-.24ZM572.38,37.26c-.91,0-1.82-.43-2.72-1.34.39,0,1.54.39,3.36,1.26l-.63.08ZM552.8,68.05c-.43.39-.87.59-1.38.59-.71,0-1.22-.12-1.58-.39-.36-.24-.51-.71-.51-1.42,0-.55.16-1.18.55-1.89s.95-1.07,1.66-1.07c.36,0,.71.08,1.11.28.39.16.63.32.67.47-.2.47-.75.91-1.62,1.3-.87.39-1.38.63-1.54.71v.39l.51.24,2.64-1.3.12.24c0,.83-.2,1.46-.63,1.86ZM555.33,68.53h-1.46c0-.91.24-1.7.67-2.29.47-.59,1.18-.91,2.17-.91,0,.32-.2.71-.63,1.3-.39.55-.87.99-1.38,1.34l.63.55ZM561.29,68.21c-.51.71-1.14,1.07-1.93,1.07-.63,0-1.18-.12-1.62-.32-.47-.24-.79-.36-1.03-.43,0-1.78,1.78-2.64,5.33-2.64,0,.83-.28,1.62-.75,2.33ZM568.71,69.59c-.16.12-.28.24-.36.32h-5.49c0-1.26.2-2.13.63-2.61.43-.47,1.38-.67,2.84-.67.95,0,1.62.16,2.01.51.43.36.63,1.03.63,2.01-.04.16-.16.28-.28.43ZM591.05,45.55c.55.36.83.87.83,1.58,0,.12-.2.47-.63.95-.43.51-.95.95-1.58,1.34-.63.36-1.3.55-1.93.55,0-.99.51-1.54,1.5-1.7l-3.2-1.26v-.75c0-.2.43-.43,1.3-.71.83-.28,1.46-.47,1.89-.55.63,0,1.22.2,1.82.55ZM576.96,39.2l-.87-.75h1.38l-.51.75ZM582.76,41.72v.95c-.75,0-1.58-.28-2.41-.91-.87-.59-1.58-1.22-2.13-1.93.08-.51.63-.75,1.7-.75h.51c1.58,0,2.33.51,2.33,1.58,0,.16-.04.32-.2.55-.16.2-.28.39-.43.51h.63ZM583.83,43.62c0-.83.63-1.26,1.89-1.26,1.78,0,2.64.43,2.64,1.26h-4.54ZM584.85,66.83c-2.64.99-5.96,1.78-9.91,2.33-.16.55-.71.83-1.7.83h-.32c-.79,0-1.54-.24-2.25-.79-.67-.51-1.03-1.18-1.03-1.93.04-.24.24-.43.55-.71.32-.24.59-.43.79-.59.24.08.99.12,2.25.12.55,0,1.11-.04,1.7-.12.55-.04,1.11-.12,1.58-.2,1.82-.28,3.24-.43,4.22-.43.28,0,.59.16.99.39.32.24.59.36.71.36.79,0,1.46-.32,1.97-.95.51-.63,1.03-1.5,1.54-2.64.55-1.18.99-1.82,1.26-1.82.83,0,1.5.24,2.01.63-.28,2.68-1.74,4.54-4.38,5.53ZM590.58,58.26c-.63.99-1.54,1.46-2.84,1.46,0-.91.51-1.42,1.5-1.58-.43-.71-.63-1.26-.63-1.7s.36-.83,1.07-1.22c.71-.39,1.3-.59,1.78-.59,0,1.42-.28,2.64-.87,3.63ZM592.47,52.07c-.24.59-1.07.87-2.41.87-.99,0-1.46-.32-1.46-1.03,0-.67.51-1.34,1.58-2.09,1.07-.71,1.93-1.11,2.64-1.11,0,1.62-.12,2.72-.36,3.36ZM573.01,67.97v.55h1.18c-.43-.43-.71-.63-.83-.63l-.36.08ZM573.37,67.9l-.36.08v.55h1.18c-.43-.43-.71-.63-.83-.63ZM573.37,67.9l-.36.08v.55h1.18c-.43-.43-.71-.63-.83-.63ZM573.37,67.9l-.36.08v.55h1.18c-.43-.43-.71-.63-.83-.63ZM573.37,67.9l-.36.08v.55h1.18c-.43-.43-.71-.63-.83-.63ZM573.37,67.9l-.36.08v.55h1.18c-.43-.43-.71-.63-.83-.63ZM573.37,67.9l-.36.08v.55h1.18c-.43-.43-.71-.63-.83-.63ZM573.37,67.9l-.36.08v.55h1.18c-.43-.43-.71-.63-.83-.63ZM573.37,67.9l-.36.08v.55h1.18c-.43-.43-.71-.63-.83-.63ZM573.37,67.9l-.36.08v.55h1.18c-.43-.43-.71-.63-.83-.63ZM573.37,67.9l-.36.08v.55h1.18c-.43-.43-.71-.63-.83-.63ZM573.37,67.9l-.36.08v.55h1.18c-.43-.43-.71-.63-.83-.63ZM573.37,67.9l-.36.08v.55h1.18c-.43-.43-.71-.63-.83-.63ZM573.37,67.9l-.36.08v.55h1.18c-.43-.43-.71-.63-.83-.63ZM573.37,67.9l-.36.08v.55h1.18c-.43-.43-.71-.63-.83-.63ZM573.37,67.9l-.36.08v.55h1.18c-.43-.43-.71-.63-.83-.63ZM573.37,67.9l-.36.08v.55h1.18c-.43-.43-.71-.63-.83-.63Z"/>
    <path class="cls-1" d="M198.99,135.24c-.28-3.67-.63-5.53-1.07-5.61l.12-2.53c0-.79-.04-1.46-.12-2.01-.08-.59-.16-1.07-.2-1.5-.28-1.82-.43-3.28-.43-4.34.08-.12.16-.43.32-.83.16-.43.24-.83.32-1.18,0-1.54-.32-3.59-.95-6.12-.71-3.12-1.07-5.45-1.07-7.03v-3.16c.2-.16.39-.32.59-.51.16-.24.28-.43.28-.67-.59,0-1.22-.32-1.93-1.03-.28-.28-.59-.55-.95-.75-.36-.24-.75-.32-1.14-.32l-2.57.75c-1.26.36-2.05.71-2.33,1.03-.28.36-.4,1.3-.4,2.76,0,1.7.12,4.26.4,7.62.28,3.39.43,6,.43,7.74l-.12,6.79c-4.38,1.42-8.41,2.13-12.08,2.13-.67,0-1.5-.08-2.49-.16-.95-.12-1.66-.16-2.17-.16-2.09-.32-3.71-.43-4.86-.43-.55,0-1.58.12-3.08.36-1.46.28-2.84.39-4.11.39-2.13,0-4.26-.16-6.36-.43-1.3-.24-2.49-.32-3.63-.32l-.95.08c-.47,0-.75-.32-.75-.95,0-.04.04-.55.08-1.46.04-.91.04-2.88.04-5.84l-.12-6.87c0-.71-.2-2.13-.63-4.22-.08-.36-.2-1.18-.39-2.41-.24-1.22-.32-2.29-.32-3.12,0-.28.12-.55.39-.79s.43-.39.43-.47c-.16-.16-.39-.39-.79-.75-.4-.36-.63-.51-.71-.51h-7.82l-.75.51-.12,5.72c0,3.47.32,6.16.87,8.05,0,10.3.08,20.92.2,31.86.16,10.97.28,18.2.43,21.71.83,1.07,1.97,1.97,3.32,2.76,1.38.79,2.68,1.18,3.87,1.18,1.34,0,2.01-.39,2.01-1.18,0-2.61-.08-5.41-.32-8.41-.2-3-.36-4.93-.4-5.76-.51-5.61-.75-10.3-.75-14.09l.12-4.46,1.34-.83,16.22,1.14h8.57c0-.2.12-.47.32-.79.24-.32.4-.47.55-.47.39,0,.75.32,1.07.95,3.95,0,6.75.28,8.41.87,1.66.55,2.68,1.54,3.12,2.96.43,1.38.63,3.83.63,7.3l-.12,12.47c0,2.13.08,3.71.24,4.74.12,1.03.39,1.58.83,1.62.51.08,1.58.32,3.28.75,2.96.87,5.09,1.26,6.36,1.26.99,0,1.5-.24,1.5-.75v-21.47c.47-.08.75-.79.75-2.13v-.43c0-1.82-.16-4.58-.43-8.25ZM145.07,110.25c0,.99-.24,1.58-.71,1.74-.51.2-1.38.28-2.64.28,0-.47.28-1.26.83-2.29.55-1.03.91-1.62,1.07-1.86.71.24,1.1.47,1.26.75.16.28.2.75.2,1.38ZM142.82,129.48c-1.03.12-1.62.16-1.78.16-.36-.36-.51-.55-.51-.63.43-1.7,1.46-3.24,3.08-4.66.28.63.47,1.38.59,2.29.08.87.16,1.46.16,1.74,0,.63-.51.99-1.54,1.11ZM144.36,130.27v.63l-3.83,3.95-.12-1.62c0-.55.36-1.18,1.07-1.86.71-.67,1.66-1.03,2.88-1.11ZM143.61,123.12c-.36.51-.91,1.07-1.58,1.54-.71.51-1.22.83-1.5,1.07-.28-.43-.47-1.03-.59-1.74-.08-.75-.16-1.26-.16-1.54,0-.95.91-1.38,2.64-1.38h.43l1.5.08c-.16.79-.4,1.46-.75,1.97ZM140.96,114.24c.75-.59,1.66-.91,2.65-.91.12,0,.28.08.47.28.16.16.28.32.28.47-.08.04-.55.71-1.38,1.93-.87,1.26-1.58,1.86-2.13,1.86-.71,0-1.07-.39-1.07-1.26,0-.99.39-1.78,1.18-2.37ZM139.78,110.69c0-1.97.91-3.28,2.64-3.91,0,.71-.24,1.34-.71,1.93-.51.59-1.14,1.26-1.93,1.97ZM141.71,119.25c.55-.28,1.42-1.34,2.64-3.16h.71l-.71,3.16h-2.64ZM144.08,102.59c.16.59.28,1.07.28,1.42,0,.55-.2.95-.59,1.22-.39.24-.83.36-1.34.36-.71,0-1.14-.24-1.38-.75.24-.2.67-.67,1.34-1.42.67-.75,1.07-1.34,1.22-1.86.12.08.28.39.47,1.03ZM139.15,101.57c0-.47.55-.75,1.7-.75.36,0,.71.12,1.07.28.36.2.51.36.51.47l-1.89,2.53c-.36-.12-.67-.47-.95-1.11-.28-.59-.43-1.07-.43-1.42ZM144.56,165.44h-4.03v-3.71l1.18-.75-.67-1.26s-.08-.04-.08-.12c0-.39.55-.95,1.74-1.58,1.14-.63,1.78-.99,1.86-1.07v8.49ZM140.21,157.82c0-1.86.04-3,.12-3.51.04-.47.36-.87.83-1.11.51-.24,1.42-.36,2.76-.36,0,1.38-.28,2.57-.87,3.51-.55.99-1.5,1.46-2.84,1.46ZM144,138.91c-.28.51-.43.91-.51,1.11.63.99.95,2.21.95,3.71s-.12,2.57-.36,3.24c-.24.67-.79,1.62-1.66,2.88l1.18-.51v2.64c-.43,0-1.07-.12-1.86-.36-.83-.24-1.22-.59-1.22-1.03v-4.54c0-.16.08-.36.28-.59.16-.24.24-.43.24-.59-.04-.47-.24-1.22-.51-2.25-.28-1.03-.51-1.89-.75-2.61,1.07-1.34,2.84-2.17,5.29-2.53-.39.39-.75.87-1.07,1.42ZM163.07,132.67c-.4.16-.75.24-1.03.24-.51,0-.75-.39-.75-1.14-1.22.91-2.09,1.38-2.64,1.38,0-.59.08-1.07.32-1.46.2-.36.36-.63.43-.79-.43.43-1.03.79-1.78,1.07s-1.46.43-2.17.43v-.63c-1.74.91-3.71,1.38-5.8,1.38v-1.38c-.95.08-1.62.32-2.13.75-.51.39-1.03,1.07-1.58,2.01-.59.99-1.14,1.7-1.74,2.21-.63.47-1.46.75-2.49.75-.08-.08-.24-.2-.43-.39-.24-.16-.32-.32-.32-.47l.08-.32c1.3-1.78,3.36-3.51,6.28-5.29,2.88-1.78,5.41-2.64,7.5-2.64.16,0,.28.12.43.32.12.2.47.32.95.32.28,0,.67-.12,1.22-.36.51-.28.95-.39,1.3-.39v.75c.43,0,1.03.12,1.82.36.79.28,1.26.59,1.5,1.03.12-.08.67-.39,1.62-1.03.95-.59,1.54-1.34,1.74-2.25.32,0,.67.16,1.14.51.43.36.67.59.67.75l-1.26,2.53c1.07-.28,1.93-.91,2.64-1.89v2.76h.51c.08-1.22.55-2.13,1.46-2.8.87-.67,1.93-1.14,3.2-1.34.28.08.63.2,1.03.32.4.16.67.28.91.43-3.12,3.67-7.03,5.49-11.76,5.49v-1.46c-.16,0-.43.08-.87.28ZM175.86,133.31c-.83.24-2.13.36-3.99.36,1.42-1.89,3.12-3.24,5.09-4.03l.12,1.26c0,1.34-.43,2.13-1.22,2.41ZM178.98,131.96c0-.79.08-1.46.28-2.05.16-.59.51-1.38.99-2.29.2.36.39.59.59.71.16.08.43.16.79.16s.79-.16,1.38-.51c.55-.32,1.07-.47,1.46-.47,0,1.93-1.78,3.71-5.37,5.41l-.12-.95ZM185.69,131.96c-.43,1.14-.75,1.7-.91,1.7h-3.28c0-.43.24-.91.63-1.5.43-.55.95-1.07,1.5-1.58.99-.91,1.62-1.66,1.89-2.21.36.16.59.28.71.43.08.12.16.36.16.71,0,.51-.24,1.3-.71,2.45ZM195.6,120.95c0,1.14-.12,2.01-.36,2.61-.28.59-.87.91-1.86.91-.79,0-1.22-.24-1.26-.67.04-.04.43-.55,1.14-1.46.71-.91,1.5-1.38,2.33-1.38ZM195.48,129.44c0,1.18-.32,1.97-.99,2.37-.67.39-1.7.59-3.12.59,0-.87.4-1.66,1.14-2.45.79-.79,1.74-1.54,2.88-2.33l.08,1.82ZM191.37,121.15c-.08,0-.2-.04-.32-.2-.16-.16-.24-.28-.24-.43.24-.55.47-.91.79-1.11.32-.16.83-.28,1.46-.28l1.03.12c-.12.08-.47.39-1.11,1.03-.59.59-1.14.87-1.62.87ZM194.06,117.24c-.43.24-1.42.32-2.92.32,0-2.13.99-3.99,2.96-5.61.43,1.14.67,2.25.67,3.39,0,1.07-.24,1.7-.71,1.89ZM190.11,100.74c1.3,0,2.25.04,2.8.16.51.08.87.36.99.71.16.39.2,1.14.2,2.17,0,2.21-.12,4.11-.39,5.68-.28,1.58-1.07,2.41-2.33,2.49-.16-.08-.28-.2-.43-.43-.16-.2-.2-.39-.2-.63l.08-.2c.36-.55.91-1.14,1.62-1.7-.08.08-.2.12-.32.12-.36,0-.75-.47-1.14-1.46-.36-.95-.67-1.46-.87-1.54v-5.37ZM188.61,128.49c.71-.95,1.78-1.38,3.16-1.38h.36c-.08.04-.55.71-1.46,2.01-.87,1.26-1.93,2.29-3.12,3.04,0-1.54.36-2.76,1.07-3.67ZM188.57,142.98c-.28-.71-.39-1.18-.39-1.5,0-.83.43-1.5,1.34-2.01.87-.47,1.74-.71,2.61-.71l1.26.12c-1.7,3.63-3.2,5.49-4.46,5.49,0-.2-.12-.67-.36-1.38ZM190.9,147.12c1.22-.79,2.8-1.18,4.7-1.18,0,1.07-.83,2.13-2.49,3.24-1.66,1.11-3,1.66-4.07,1.66,0-1.7.59-2.96,1.86-3.71ZM192.91,156.2c-1.03.99-1.97,1.5-2.8,1.5-.16-.43-.32-.95-.43-1.54-.16-.59-.24-1.07-.24-1.42,0-.55.67-.99,1.93-1.22,1.26-.24,2.37-.36,3.28-.36h.75c-.63,1.03-1.5,2.05-2.49,3.04ZM195.4,155.06v3.39c0,.47-1.11.75-3.28.75h-1.3c.16-.32,1.66-1.66,4.58-4.14ZM191.14,163.74c-.63,0-1.07-.39-1.3-1.18-.24-.75-.4-1.42-.4-2.01.79,0,1.82-.12,3.08-.39,1.26-.28,2.25-.43,2.88-.43-.24.79-.79,1.62-1.78,2.61-.95.95-1.78,1.42-2.49,1.42ZM195.12,163.27c-.24.32-.59.47-1.03.47.08-.55.24-.99.43-1.22.24-.24.55-.36.95-.36,0,.39-.12.79-.36,1.11ZM194.33,151.94c-1.14.39-2.57.59-4.22.59,2.25-2.41,4.18-3.95,5.8-4.58l.12,1.38c0,1.34-.59,2.21-1.7,2.61ZM194.81,144.71c-1.3.95-2.64,1.46-3.99,1.46v-.87c.08-.08.28-.28.55-.63.28-.36.63-.79,1.07-1.26,2.33-2.84,3.47-4.34,3.47-4.54.28.32.51.79.63,1.3.16.51.24.99.24,1.3,0,1.22-.67,2.29-1.97,3.24ZM195.79,136.94c-.63.43-1.58.63-2.84.63-.83,0-1.38-.24-1.58-.71,2.09-2.13,3.63-3.2,4.54-3.2.2,0,.39.12.59.32.16.2.28.39.28.55,0,1.18-.32,1.97-.99,2.41Z"/>
    <path class="cls-1" d="M263.57,159.83c-1.7-3.75-2.92-6.67-3.75-8.8-.79-2.13-1.3-4.22-1.54-6.36-.28-2.53-.55-4.18-.87-4.97-.35-.79-.75-1.38-1.22-1.82-.67-.47-1.26-1.26-1.82-2.33-.63-1.26-1.14-3.36-1.58-6.24l-.43-2.33c0-.28-.43-1.07-1.26-2.33-.87-1.14-1.26-1.86-1.26-2.21,0-.24.04-.47.2-.75.16-.28.28-.51.43-.63h-1.38c0-.71-.24-1.5-.75-2.33-.43-.99-.63-1.74-.63-2.25.08-.04.16-.16.32-.32.16-.12.28-.2.43-.2-.59-.43-1.03-1.03-1.34-1.86-.32-.83-.59-1.82-.91-3-.28-1.14-.51-1.97-.79-2.57-.24-.55-.55-.83-.99-.83l.08-.95-1.26-2.57c-.75-2.41-1.5-4.03-2.21-4.86-.71-.87-1.7-1.34-2.92-1.5-1.22-.12-3.67-.2-7.34-.2-.71.55-1.74,2.96-3.04,7.18-1.3,4.26-1.93,6.95-1.93,8.05-.79,0-1.42.47-1.93,1.38-.47.91-.83,2.05-1.03,3.43-.24,1.38-.39,2.33-.55,2.8l-.51.55c-.43,1.7-.99,3.36-1.7,5.01-.71,1.66-1.18,2.76-1.38,3.36-.99,2.25-1.74,4.07-2.21,5.41-.95,2.37-1.93,5.8-3,10.26-.2.75-.59,2.21-1.18,4.34-.63,2.09-1.18,4.03-1.78,5.72l-.95,2.33c-.99,2.45-1.74,4.46-2.21,5.96-.51,1.54-.75,2.88-.75,4.07,1.54.59,2.8.95,3.71,1.14.91.16,2.01.24,3.28.24.91,0,1.58-.39,1.97-1.14.39-.79.67-1.89.91-3.39.12-1.14.36-2.05.63-2.76,1.38-3.24,2.37-5.57,2.84-6.91.51-1.38,1.11-3.43,1.82-6.12.47,0,2.84.12,7.07.32,2.13.24,4.18.32,6.16.32.91,0,1.7,0,2.37-.08.67-.08,1.26-.16,1.78-.24,1.26-.2,2.6-.32,4.03-.32,1.18,0,2.37.75,3.51,2.25,1.18,1.46,2.17,3.24,2.92,5.29.79,2.05,1.26,3.2,1.38,3.47.24.59.39,1.14.59,1.66.16.51.36,1.03.59,1.54.55,1.74,1.03,3.08,1.42,3.95.4.91.75,1.34,1.11,1.34.28,0,.75-.12,1.42-.32.67-.24,1.18-.32,1.54-.32.79,0,1.66.24,2.64.75.16.04.51.2,1.07.39.55.24,1.18.32,1.82.32,1.11,0,1.97-.12,2.57-.39.63-.32.91-.87.91-1.7-.91-2.33-1.93-4.66-3.08-6.99ZM243.87,111.95c.24,0,.71.91,1.46,2.76.71,1.82,1.11,2.88,1.11,3.16l-2.57,2.64c.36-.36.75-.67,1.18-.95.43-.28.79-.43,1.07-.51.75,0,1.26.43,1.42,1.38.16.91.28,2.01.28,3.28,0,2.17-1.3,4.38-3.95,6.55-.47-.47-.71-1.18-.71-2.13v-.63c0-.67.16-1.14.47-1.34.32-.24.79-.47,1.46-.71.67-.24,1.11-.59,1.34-.99-.63,0-1.46.12-2.45.39-.28.08-.59.16-.91.24-.32.08-.71.08-1.22.08,0-.39.16-.99.4-1.7.24-.67.35-1.3.35-1.78-.91.55-1.46.83-1.7.83-.71,0-1.07-.75-1.07-2.33,0-.36.04-.71.12-1.07.08-.32.28-.55.63-.63-.39-.04-.87-.24-1.3-.55-.47-.36-.71-.67-.71-1.03l.12-.43,4.54-4.54h.63ZM243.36,138.63c-1.42,0-3.55.16-6.36.43-.71.08-1.58.12-2.64.2-1.07.08-2.25.12-3.59.12-2.6,0-3.95-.51-3.95-1.58l.12-.32c1.89-2.84,3.55-5.96,4.93-9.39,1.38-3.43,2.33-6.83,2.92-10.22l5.05,9.87c0,.55.24,1.34.67,2.37.39,1.03.67,1.7.83,1.97,1.34,3.08,2.01,5.29,2.01,6.55ZM240.83,113.02c-1.42,1.54-2.37,2.33-2.88,2.33-.28,0-.63-.36-1.11-1.11-.47-.75-.67-1.3-.67-1.66,1.54-1.26,3.91-1.89,7.07-1.89-.75.55-1.58,1.34-2.41,2.33ZM228.83,115.98c-.55,0-.91-.12-1.1-.32-.16-.24-.24-.55-.24-1.07,0-1.34.2-2.29.67-2.92.47-.59,1.18-1.14,2.17-1.62.43-.24.87-.47,1.34-.79.43-.32.83-.75,1.1-1.22h-2.64c.36-.24.59-.67.79-1.38.16-.71.28-1.46.36-2.21.24-1.34.47-2.37.75-3.08.28-.71.75-1.07,1.38-1.07.43,0,1.1.24,2.05.67.95.47,1.54.71,1.74.71l1.3-.12c0,.08.67.79,2.05,2.13,1.38,1.34,2.05,3.2,2.05,5.61l-7.82,2.64c-.87,1.7-2.05,3.2-3.63,4.46-1.54,1.26-3.2,2.13-4.97,2.64l-.08-.75c0-1.54.91-2.33,2.72-2.33ZM223.82,123.59c.51-.36,1.34-.63,2.49-.83.91-.16,1.62-.32,2.13-.55.47-.2.83-.59,1.07-1.14-.51,0-1.18.12-2.01.36-.87.24-1.58.36-2.13.36,0-.39.95-1.3,2.8-2.64,1.86-1.3,3-2.01,3.43-2.01h.75c0,2.76-2.88,5.84-8.68,9.24-.08,0-.2-.08-.36-.2-.2-.16-.28-.32-.28-.43,0-1.07.28-1.78.79-2.13ZM223.47,127.94c.47-.43,1.07-.83,1.7-1.26,1.66-1.14,2.92-2.17,3.67-3.08h.67c-.51,2.33-1.18,3.83-2.01,4.5-.87.67-2.45,1.03-4.78,1.03,0-.36.24-.75.75-1.18ZM220.07,133.34c.2-.71.47-1.38.79-2.05.32-.67.79-1.03,1.42-1.03h4.66c-1.07.79-2.37,1.66-3.95,2.61-1.62.95-2.72,1.62-3.36,1.97.08-.32.2-.79.43-1.5ZM226.31,132.59c0,.63-.4,1.22-1.22,1.82-.79.55-1.58.83-2.25.83,0-.55.16-1.03.51-1.42.36-.39.83-.71,1.46-.99.67-.32,1.1-.51,1.38-.67l.12.43ZM213.32,161.25c-.95,1.03-1.46,1.62-1.54,1.74h.87c0,.24-.12.59-.32,1.11-.2.55-.51.83-.83.83-.43,0-.71-.16-.83-.43-.08-.28-.16-.67-.16-1.18,0-1.07.36-2.13,1.07-3.28.71-1.14,1.54-1.7,2.57-1.7l.95.12c-.24.83-.79,1.78-1.78,2.8ZM216.72,152.77c-.87.75-1.62,1.3-2.25,1.66l-.12-.87c0-.2.32-.67.91-1.34.59-.71,1.22-1.07,1.86-1.07l1.38.08c-.32.32-.87.79-1.78,1.54ZM215.81,149.85c1.58-1.74,2.84-2.64,3.83-2.64h.75c-1.26,1.78-2.8,2.64-4.58,2.64ZM218.1,146.41c-.95.47-1.5.75-1.62.79l-.12-.63c0-.75.2-1.38.63-1.89.43-.47,1.03-.75,1.82-.75.91,0,1.42.28,1.58.75-.55.71-1.34,1.3-2.29,1.74ZM221.77,142.66h-2.76l2.76-2.53v2.53ZM219.79,140.13c-.95.55-1.62.99-2.05,1.26l-.12-1.26c0-1.58.43-2.61,1.34-3.16.87-.51,2.21-.79,4.07-.79h.63c-.28.79-.75,1.5-1.42,2.13-.67.63-1.5,1.22-2.45,1.82ZM227.22,145.5c-1.11.32-2.21.43-3.36.43h-.63c-.47,0-.79-.2-.95-.63.63-.47,1.62-1.07,2.96-1.74,1.34-.67,2.13-1.03,2.33-1.03.36,0,.67.12.91.39.24.24.35.55.35.99,0,.79-.51,1.3-1.62,1.58ZM230.85,143.77c.59-.43,1.22-.63,1.93-.59l1.38.24c-1.34,1.46-2.72,2.21-4.15,2.21,0-.79.28-1.38.83-1.86ZM240.24,145.74c-1.22.43-2.68.63-4.3.63l-2.76-.12c0-.71.32-1.22.91-1.58.59-.36,1.46-.79,2.6-1.26v1.26c.16-.28.59-.79,1.38-1.54.75-.75,1.38-1.11,1.78-1.11.43,0,1.07.12,1.86.36.83.28,1.34.59,1.54,1.03-.75,1.11-1.78,1.89-3,2.33ZM243.04,145.74c0-1.07.51-1.62,1.58-1.7-.12,1.14-.67,1.7-1.58,1.7ZM245.89,130.27c1.22-1.97,2.05-3.28,2.57-3.91.71,0,1.22.55,1.58,1.7.36,1.11.51,2.17.51,3.16,0,1.07-.35,2.05-1.03,2.96-.71.95-1.62,1.38-2.64,1.38-.16,0-.36-.2-.67-.63-.28-.39-.4-.79-.4-1.14l.08-.24,3.95-2.01c-.36,0-.99.12-1.93.32-.91.24-1.58.32-2.01.32-.28,0-.47-.16-.63-.47-.12-.32-.2-.47-.2-.47,0-.08.28-.39.83-.95ZM248.57,147.67c-.32-.16-.59-.51-.87-1.11,2.76-1.11,4.5-2.17,5.29-3.16-.71,0-1.78.32-3.16.95-1.42.71-2.57,1.07-3.39,1.07l-1.26-.12c.63-1.11,1.7-2.53,3.16-4.18,1.5-1.66,2.37-2.64,2.64-3v-.63h-3.28c.36-.95.91-1.7,1.7-2.33.79-.63,1.58-.99,2.45-.99.12.51.36,1.3.71,2.41.36,1.11.67,2.13.87,3.12.2.99.32,2.13.32,3.39,0,1.18-.36,2.29-1.07,3.32-.71,1.03-1.66,1.54-2.84,1.54-.59,0-.99-.08-1.26-.28ZM247.7,140.13c0-.87.47-1.26,1.5-1.26l-1.5,1.26ZM250.98,152.41c0-.51.16-.87.43-1.11.28-.28.79-.51,1.46-.79.99-.32,1.66-.71,2.01-1.3-.36.08-.91.16-1.66.28-.79.12-1.38.24-1.82.36-.28,0-.51-.08-.63-.32-.16-.2-.24-.32-.32-.32.28-.55,1.03-1.22,2.25-2.05,1.26-.79,1.89-1.26,1.97-1.3.63,0,.95.83.95,2.53v.51c0,.79-.39,1.82-1.22,3.08-.79,1.26-1.58,1.89-2.25,1.89-.79,0-1.18-.47-1.18-1.46ZM252.99,155.81c.24-.36.55-.87.95-1.54.43-.67.91-1.38,1.5-2.05.55-.71.99-1.07,1.26-1.07.63,0,.95.79.95,2.41,0,.71-.55,1.26-1.7,1.66-1.11.39-2.09.59-2.96.59ZM255.32,159.71c-.36,0-.71-.24-1.07-.75-.36-.47-.51-.91-.51-1.26,0-.63.63-1.14,1.97-1.58,1.3-.43,2.37-.63,3.2-.63v1.07l-3.4,3.04-.2.12ZM260.22,164.25c-2.29,0-3.55-.39-3.83-1.26l2.53-2.64c-.99.51-1.93.75-2.84.75,0-.43.2-.87.63-1.34.43-.43.99-.87,1.66-1.26.67-.39,1.07-.63,1.18-.79,1.42,2.41,2.13,4.18,2.13,5.41,0,.79-.47,1.14-1.46,1.14Z"/>
    <path class="cls-1" d="M325.55,112.38h2.01v-.63l-2.01.63ZM325.55,112.38h2.01v-.63l-2.01.63ZM325.55,112.38h2.01v-.63l-2.01.63ZM325.55,112.38h2.01v-.63l-2.01.63ZM325.55,112.38h2.01v-.63l-2.01.63ZM325.55,112.38h2.01v-.63l-2.01.63ZM325.55,112.38h2.01v-.63l-2.01.63ZM325.55,112.38h2.01v-.63l-2.01.63ZM325.55,112.38h2.01v-.63l-2.01.63ZM325.55,112.38h2.01v-.63l-2.01.63ZM325.55,112.38h2.01v-.63l-2.01.63ZM325.55,112.38h2.01v-.63l-2.01.63ZM325.55,112.38h2.01v-.63l-2.01.63ZM325.55,112.38h2.01v-.63l-2.01.63ZM325.55,112.38h2.01v-.63l-2.01.63ZM325.55,112.38h2.01v-.63l-2.01.63ZM325.55,112.38h2.01v-.63l-2.01.63ZM325.55,112.38h2.01v-.63l-2.01.63ZM339.09,159.44c-.2-1.42-.36-2.37-.39-2.8-.43-2.53-.67-4.42-.75-5.72-.36-6.75-.83-12.4-1.42-16.82-.63-4.46-1.42-9.32-2.41-14.61-.12-.87-.51-3.04-1.14-6.51-.63-3.51-1.14-7.18-1.5-11.09l-.12-.95.12-.83c0-1.22-.55-2.09-1.62-2.61-1.11-.55-2.17-.79-3.24-.79-2.68,0-4.3.67-4.89,2.01-.71,1.62-1.66,3.59-2.84,5.96-1.22,2.37-2.21,4.3-3.08,5.76l-1.58,2.45-2.96,4.66c-.43.71-.95,1.82-1.62,3.28-.99,2.13-1.82,3.83-2.53,5.09-.71,1.26-1.5,2.21-2.45,2.88-.99-.79-2.17-2.37-3.59-4.78-.55-.91-1.14-1.93-1.82-3.12-1.11-1.97-2.41-4.34-3.91-7.07-1.03-1.93-2.01-3.71-2.88-5.29-1.54-2.72-2.84-4.93-3.95-6.63-1.74-2.68-3.12-4.22-4.18-4.58-.28.08-.59.2-.99.36-.39.2-.67.32-.79.39-.36,0-.83-.16-1.38-.39-.59-.24-.91-.36-1.07-.36-.91,0-1.58.51-2.01,1.58-.43,1.07-.67,2.29-.71,3.71,0,1.42-.08,2.29-.16,2.64-.83,5.09-1.26,8.96-1.26,11.65l-4.03,23.61.12,3.63c0,5.49-.87,12.36-2.64,20.53.08.16.16.47.32,1.03.16.51.24.83.32.87,1.34.95,2.45,1.54,3.36,1.82.87.28,2.05.43,3.51.43,1.78,0,2.72-.51,2.88-1.5l3.28-22.22c-.08-.51-.12-1.26-.12-2.25,0-2.09.36-5.37,1.07-9.71.71-4.26,1.07-7.26,1.07-9,.71-3.67,1.14-6.08,1.26-7.22.43.43.67.63.75.63,1.34,3.95,3.04,7.89,5.09,11.84.12.24.24.47.36.71,1.74,3.24,3.87,7.07,6.47,11.49.79,1.34,1.62,2.72,2.49,4.14.08,1.46.55,2.64,1.42,3.43.87.83,2.05,1.22,3.55,1.22.71,0,1.3-.32,1.82-.91.47-.59.91-1.38,1.3-2.37s.71-1.66.91-2.01c1.7-3.55,3.87-8.25,6.51-14.13,2.64-5.92,4.38-9.91,5.25-12.04v-2.53h1.38c.4,0,.71,1.54.95,4.58.2,3.08.32,5.68.32,7.82l.63.63c.36,1.46.87,4.34,1.58,8.57.71,4.22,1.07,7.03,1.07,8.37,0,5.64.2,10.46.63,14.41-.08.28-.2.91-.36,1.86-.2.95-.28,1.74-.28,2.37,0,1.62,2.25,2.45,6.79,2.45,1.26,0,2.17-.08,2.68-.16.51-.12.95-.43,1.26-1.03.32-.55.47-1.5.47-2.84,0-1.22-.08-2.53-.32-3.99ZM321.32,106.07c.2-.16.51-.28.95-.28.75,0,1.22.24,1.38.67-.59.55-1.18.83-1.82.83h-.87c0-.63.12-1.03.36-1.22ZM319.51,110.45c.12-.04.43-.08.83-.08.79,0,1.42.24,1.93.75h-3.08c.08-.36.16-.59.32-.67ZM296.85,122.02v1.46h-2.13c0-.99.71-1.46,2.13-1.46ZM279.8,100.74c.43,0,1.14.04,2.21.2,1.07.16,1.66.24,1.82.32v1.38c.47,0,.83.12,1.07.32.2.2.32.59.32,1.14-1.7,0-2.6-.28-2.64-.83-.43,0-.95.12-1.5.36-.55.28-.99.39-1.26.39v-3.28ZM276.52,129.44l1.46-.12c.71,0,1.11.24,1.18.75-.35.2-.83.39-1.38.51-.55.16-.99.24-1.26.24v-1.38ZM275.97,134.61c0-.12.32-.28.95-.36.67-.12,1.22-.16,1.7-.16.16,0,.36.04.63.16.32.08.47.24.55.36-.51.16-1.22.39-2.13.79-.91.39-1.46.59-1.7.59v-1.38ZM275.97,165.32c-.71,0-1.3-.16-1.86-.47-.51-.32-.79-.79-.79-1.42,0-1.42.24-2.76.71-4.03.43-1.26,1.26-1.89,2.49-1.89-.08.08-.28.51-.55,1.34l.12.67h1.14l.12,2.41c0,2.29-.43,3.39-1.38,3.39ZM277.74,154.46c-.67,1.22-1.78,1.86-3.24,1.86,0-3.04.12-5.13.39-6.36.32-1.18,1.07-1.78,2.33-1.78v.83l1.38-.63.12,1.89c0,1.58-.36,2.96-.99,4.18ZM279.08,145.66c-.51.91-1.54,1.34-3.12,1.34.16,0,.39-.28.75-.79.36-.55.51-.91.51-1.11-.04-.16-.36-.43-.95-.91-.55-.47-.91-.79-1.07-1.03-.12-.67-.28-1.5-.39-2.49-.16-.95-.28-1.78-.32-2.49,1.7,0,2.88.08,3.55.16.67.12,1.14.43,1.42.99.28.51.43,1.46.43,2.8,0,1.46-.28,2.64-.83,3.51ZM279.16,137.53c-.91.16-1.7.28-2.33.28,0-.87.28-1.38.83-1.54.59-.2,1.38-.28,2.45-.28.28,0,.43.12.43.32,0,.63-.47,1.03-1.38,1.22ZM281.18,132.91c-.08.24-.28.32-.63.32l-4.03-.51c.28-.51.91-.95,1.93-1.34,1.03-.36,1.74-.59,2.09-.67.47.2.71.63.71,1.26,0,.43,0,.75-.08.95ZM280.9,127.78c-.67.24-1.38.36-2.17.36-.91,0-1.42-.2-1.5-.63,1.07-.39,1.7-.99,1.93-1.7h-1.93l.67-1.66,3.79,2.01c.16.39.24.67.24.71,0,.36-.36.67-1.03.91ZM279.64,123.79c-.83-.32-1.22-.91-1.22-1.66,0-.79.47-1.18,1.38-1.18-.99-.28-1.5-.79-1.5-1.46,1.58,0,2.61.36,3.08,1.11.51.71.75,1.97.75,3.75-.87,0-1.7-.16-2.49-.55ZM283.07,117.79c-.35.83-.91,1.26-1.7,1.26-.12,0-.47-.2-.95-.59-.51-.39-.91-.67-1.26-.91v-3.39c.55,0,1.18.2,1.86.55.67.36,1.54.51,2.57.51,0,.87-.16,1.7-.51,2.57ZM284.49,113.45c-.4.2-.99.32-1.86.32-.36,0-.67-.04-.95-.12-.28-.08-.43-.24-.51-.51.71-.28,1.5-.59,2.41-.87.95-.28,1.66-.43,2.13-.51-.43.91-.83,1.46-1.22,1.7ZM286.19,109.03c-1.03.63-1.78.91-2.25.91.04-.08.08-.16.08-.32s-.12-.32-.43-.51c-.28-.24-.43-.39-.51-.55,0-.2.08-.43.28-.67.16-.24.32-.43.47-.59-.36.08-1.03.32-1.97.75-.95.43-1.66.63-2.17.63,0-.91.59-1.62,1.82-2.13,1.18-.47,2.29-.75,3.28-.75.55,0,1.18.16,1.9.47.71.36,1.07.75,1.07,1.22,0,.43-.51.95-1.54,1.54ZM288.68,116.49c-.12-.04-.4-.16-.75-.32-.36-.12-.63-.32-.83-.51.08-.51.59-.75,1.58-.75h.32l1.38.12c-.99.99-1.54,1.46-1.7,1.46ZM289.9,113.61c-.75.08-1.62.16-2.61.16h-.95c.63-.63,1.74-1.54,3.28-2.64.95.91,1.38,1.42,1.38,1.58,0,.47-.35.79-1.1.91ZM292.35,120.28c-.32.04-.59.04-.91.04,0-.55.32-1.14.95-1.7.32-.39.75-.71,1.26-1.07.51.51.91,1.18,1.18,2.01-.71.39-1.54.63-2.49.71ZM292.94,122.33v-.75h1.9c-.24,0-.55.12-.95.39-.43.24-.75.36-.95.36ZM294.28,125.65c-.12-.32-.2-.59-.2-.87h2.96c0,.39-.28.75-.83.99-.59.24-1.03.39-1.38.39-.24,0-.39-.2-.55-.51ZM296.14,126.71c.63-.36,1.3-.55,2.09-.55.47,0,.83.08.99.28.08.08.12.16.16.24-.04.08-.08.16-.16.2-.67.95-2.01,1.38-3.95,1.38,0-.63.28-1.14.87-1.54ZM297.16,130.9c-.59,0-1.03-.04-1.34-.16-.32-.08-.47-.39-.47-.91l.12-.39h4.54c-.12.63-.39,1.03-.83,1.22h-.04c-.43.16-.91.24-1.54.24h-.43ZM298.23,132.71c.24-.36.51-.71.91-1.11.04-.08.16-.16.24-.28.51-.51.87-.75,1.07-.75l.32.12c.2.12.43.32.71.59.24.24.39.47.47.67-.32.36-.63.59-.99.71-.36.08-.87.16-1.58.16l-.28-.04-.87-.08ZM299.37,134.09h2.57c-.08.43-.39.75-.91,1.07-.55.28-1.07.39-1.66.39v-1.46ZM301.39,138.95c0-.75.55-1.14,1.58-1.14,0,.39-.12.75-.39.99-.32.24-.63.39-1.07.39l-.12-.24ZM304.03,143.17c0-.12-.04-.24-.12-.32-.04-.04-.08-.12-.08-.2,0-.16.16-.32.51-.47.36-.16.67-.28.95-.28l.12.24c-.08.12-.28.36-.59.63-.32.28-.55.39-.79.39ZM306.95,143.92c-.16.36-.39.71-.67,1.03-.32.32-.67.47-1.18.47,0-1.07.59-1.86,1.82-2.33l.4.08c-.04.16-.2.39-.36.75ZM316.59,123.16c-.79,1.14-1.74,2.21-2.8,3.2-1.07.99-1.7,1.54-1.89,1.7h2.09c0,1.78-.39,2.64-1.26,2.64l-2.21-.63c0,.28.12.63.36,1.07.24.39.4.71.4.83,0,.2-.2.47-.59.79-.39.32-.67.47-.79.47.63,0,1.3-.16,2.01-.51,0,2.8-.87,4.97-2.6,6.47-1.74,1.46-3.99,2.21-6.83,2.21,0-1.22,1.38-2.57,4.14-4.14v-.51l-1.93-.12c-.2.08-.75.2-1.62.32-.91.16-1.42.24-1.54.32l-.75-.63c.2-.63.63-1.07,1.22-1.26.59-.2,1.46-.36,2.61-.43.12,0,.59-.04,1.42-.08.79-.08,1.46-.32,1.93-.75l-1.34-.87c.28-.39.71-1.22,1.3-2.37.59-1.18,1.34-2.29,2.17-3.39.87-1.11,1.89-1.74,3.08-1.97-.08-.04-.32-.16-.67-.36-.39-.16-.59-.39-.59-.67,0-1.34.59-2.41,1.86-3.2,1.22-.79,2.57-1.14,4.07-1.14,0,.91-.39,1.93-1.22,3.04ZM316.43,119.41c-.71.32-1.38.47-2.01.47,0-.71.2-1.38.55-2.01.32-.63.83-.95,1.46-.95.24.08.55.28,1.03.59.43.32.79.63.99.91-.63.36-1.3.67-2.01.99ZM319.19,117.04c-.36,0-.67-.04-.91-.12-.24-.08-.47-.24-.67-.51.4-.16.87-.28,1.42-.43.51-.16.95-.24,1.3-.32.16,0,.28.08.43.28.16.16.2.32.2.47-.63.39-1.22.63-1.78.63ZM324.99,115.54c-.28-.75-.71-1.38-1.34-1.78l.63-.63h-.63c-.67.04-1.42.16-2.33.32-.95.12-1.66.24-2.13.32l.43.63-2.57.63-.12-.32c0-.87.63-1.5,1.89-1.97,1.22-.43,2.96-.91,5.21-1.3,1.86-.43,3-.75,3.51-.99l-.63-1.03h-5.21c.16-.79.91-1.38,2.33-1.82.16-.08.59-.24,1.26-.47.71-.24,1.26-.67,1.62-1.34-.36-.2-.99-.36-1.86-.51-.91-.16-1.54-.32-1.97-.47-.43-.16-.71-.47-.83-.91.71-.83,1.54-1.58,2.49-2.29.95-.67,1.89-.99,2.8-.99l.63.12,1.38,13.66c.08.2.16.51.32.95.12.43.24.79.32,1.07,0,.28-.24.43-.71.51-.43.08-1.22.12-2.37.12-.71,0-1.18-.12-1.42-.32-.24-.24-.47-.59-.71-1.18ZM326.77,119.53c-.47-.47-.71-.87-.71-1.22.63,0,2.01.2,4.14.63-.71.87-1.54,1.26-2.45,1.26-.2,0-.55-.2-.99-.67ZM328.07,121.9c0-.39.32-.71.95-.91.67-.16,1.22-.24,1.7-.24v2.21l-2.53-.83c-.08,0-.12-.08-.12-.24ZM329.69,123.4c0,.63-.32,1.11-.87,1.38l-.63-.63c.43-.51.91-.75,1.5-.75ZM328.7,126.67c0-.55.32-1.03.91-1.38.59-.36,1.22-.51,1.86-.51v3.59c-.83,0-1.5-.12-2.01-.32-.47-.24-.75-.67-.75-1.38ZM329.57,129.44l.63-.12c1.34,0,2.01.39,2.01,1.18,0,.2-.36.39-1.1.55-.75.2-1.26.32-1.54.39v-2.01ZM330.09,133.66c0-.63.39-1.11,1.22-1.38.83-.28,1.62-.43,2.37-.43,0,1.86-.32,2.76-.95,2.76-.36,0-.79-.04-1.3-.16-.55-.12-.95-.24-1.22-.36l-.12-.43ZM333.48,135.99c-.28.43-.67.75-1.14.99-.51.28-1.03.39-1.62.39v-2.13c.36,0,.83.12,1.46.32.59.24,1.03.36,1.3.43ZM330.72,139.38c1.07-1.07,1.97-1.58,2.76-1.58v3.91c-1.82,0-2.76-.79-2.76-2.33ZM332.73,142.35c-.2.55-.63.83-1.26.83v-.83h1.26ZM331.47,146.06c0-.71.28-1.3.79-1.82.55-.47,1.14-.83,1.86-1.07v4.03c-.79,0-1.42-.04-1.89-.16-.51-.08-.75-.43-.75-.99ZM334.11,148.38l-1.89,1.89v-1.89h1.89ZM332.73,151.03c.63-.55,1.3-.83,2.01-.83v2.72h-2.96c0-.71.32-1.34.95-1.89ZM334.11,154.31c-.2.51-.83.75-1.89.75v-.75h1.89ZM335.61,163.46c-.36.28-1.07.43-2.13.59-.08-.36-.32-1.46-.67-3.32-.4-1.89-.59-3.08-.59-3.55,0-.43.28-.83.79-1.18.51-.36.99-.51,1.42-.51.59,0,.99.79,1.26,2.41.32,1.66.43,3.04.43,4.26,0,.63-.16,1.07-.51,1.3ZM327.56,111.75l-2.01.63h2.01v-.63ZM325.55,112.38h2.01v-.63l-2.01.63ZM325.55,112.38h2.01v-.63l-2.01.63ZM325.55,112.38h2.01v-.63l-2.01.63ZM325.55,112.38h2.01v-.63l-2.01.63ZM325.55,112.38h2.01v-.63l-2.01.63ZM325.55,112.38h2.01v-.63l-2.01.63ZM325.55,112.38h2.01v-.63l-2.01.63ZM325.55,112.38h2.01v-.63l-2.01.63ZM325.55,112.38h2.01v-.63l-2.01.63ZM325.55,112.38h2.01v-.63l-2.01.63ZM325.55,112.38h2.01v-.63l-2.01.63ZM325.55,112.38h2.01v-.63l-2.01.63ZM325.55,112.38h2.01v-.63l-2.01.63ZM325.55,112.38h2.01v-.63l-2.01.63ZM325.55,112.38h2.01v-.63l-2.01.63ZM325.55,112.38h2.01v-.63l-2.01.63Z"/>
    <path class="cls-1" d="M405.01,111.79c-1.14-2.21-3.04-4.89-5.65-8.01-.36-.47-.55-.71-.55-.71,0,0-.39-.51-1.26-1.5-2.17-.55-4.38-1.5-6.55-2.84-1.42-.87-2.57-1.42-3.39-1.7h-11.65l-1.26.63h-14.53c-.2,0-.67.28-1.42.79-.75.51-1.11.95-1.11,1.22v6.43c-.59.08-1.07.36-1.5.83-.43.43-.63.95-.63,1.54,0,.28.32.47.91.55.59.12,1.07.32,1.42.63.36.32.55.95.55,1.86,0,.63-.16,1.62-.43,2.88-.28,1.26-.43,2.25-.43,2.96,0,.2.16.67.43,1.38.28.71.43,1.38.43,2.01,0,1.18-.16,2.05-.39,2.53-.24.51-.36.91-.36,1.18s.12.79.36,1.5c.24.75.39,1.7.39,2.84,0,.99-.12,2.17-.36,3.59-.28,2.41-.39,4.3-.39,5.72,0,3.24.2,8.09.63,14.61.47,5.8.75,10.74.75,14.8.99.79,2.37,1.42,4.18,1.86,1.78.47,3.43.71,4.89.71l.63-.63v-22.15c.16-.36.32-.63.43-.79.16-.16.24-.39.24-.67v-.87l3.16.12c1.97.2,3.99.32,6.04.32,3.04,0,6.71-.47,11.01-1.38,3.51-.71,6.59-2.29,9.16-4.7,2.57-2.45,4.54-5.37,5.92-8.8,1.38-3.43,2.09-6.83,2.09-10.22s-.59-6.32-1.78-8.53ZM375.68,100.74c1.11-.71,2.45-1.07,4.11-1.07,3.43,0,6.36.24,8.72.79,2.37.51,4.93,1.54,7.66,3l-1.14,1.3c.91,0,1.78.36,2.64,1.14.83.79,1.58,1.62,2.21,2.57.63.91.95,1.42.95,1.58,0,.2-.2.67-.67,1.42-.47.75-.71,1.18-.71,1.34l.12.39c.28-.28.67-.55,1.18-.83.47-.28.83-.43,1.03-.43.67,0,.99.79.99,2.33,0,.87-.39,1.58-1.14,2.17-.71.59-1.7,1.3-2.88,2.05.04-.04.08-.36.08-.95,0-.91-.12-1.66-.39-2.21-.32-.55-.83-1.03-1.54-1.38-.75-.36-1.22-.59-1.42-.75l1.46-1.26c-.55-.08-.99-.24-1.22-.47-.24-.24-.47-.59-.75-1.07-.24-.43-.51-.79-.79-.99-.36-.36-1.38-1.26-3.16-2.64l.63-.67c-.28-.39-1.46-.75-3.51-1.03-.2,0-.51-.08-.95-.16-.43-.12-.91-.24-1.46-.39-.59-.12-.87-.36-.87-.63,0-.12.04-.24.12-.32l-1.07,1.18-2.45-.12c-1.82,0-3.24.24-4.22.75l1.26.71-1.26.12c-.71,0-1.3-.2-1.82-.63-.47-.43-.99-.71-1.46-.83.43-.16.91-.43,1.42-.83.51-.36.95-.75,1.22-1.11-.08-.04-.75.16-2.01.63-1.26.51-2.13.75-2.53.75,1.34-1.62,2.53-2.76,3.63-3.47ZM400.31,122.33l1.14.12c-.63.91-1.82,1.34-3.59,1.34,0-.47.28-.83.79-1.11.55-.24,1.11-.36,1.66-.36ZM379.35,134.92h-9.32c-.43,0-.75-1.11-.99-3.32-.2-2.25-.39-5.68-.63-10.34l-.32-5.92v-5.29l.63-.63c.79-.16,2.17-.28,4.14-.39,1.97-.08,3.87-.2,5.61-.24l5.41-.12c3.32,0,5.49.24,6.47.75,1.07.55,2.29,2.13,3.71,4.7,1.38,2.57,2.09,4.5,2.09,5.76l-.71,3.2c-.79,3.08-1.82,5.57-3.04,7.42-1.22,1.82-3,2.8-5.33,2.96-.36.04-1.46.16-3.24.32-1.82.12-3.16.51-4.07,1.14v-.75l-.43.75ZM362.3,112.23c1.18-1.11,2.25-1.66,3.16-1.66-.08.99-.2,1.97-.36,2.96-.2.99-.28,1.62-.28,1.82h-4.34c0-.99.59-2.05,1.82-3.12ZM360.92,110.05c0-.28.28-.51.83-.63.59-.16,1.18-.24,1.82-.24,0,.99-.63,1.7-1.89,2.13-.24-.16-.4-.36-.55-.59-.12-.24-.2-.47-.2-.67ZM365.46,123.08c-.63.39-1.18,1.26-1.7,2.53-.47.99-.95,1.74-1.38,2.17-.39.47-.99.71-1.7.71,0-1.07.16-1.93.39-2.61.24-.67.75-1.11,1.54-1.34-.71,0-1.07-.51-1.07-1.58s.32-2.25,1.03-3.55c.63-1.3,1.42-2.29,2.25-2.92.51.71.75,1.78.75,3.2l-.12,3.39ZM366.17,127.31c.08.51.16,1.18.16,2.01,0,1.62-.47,2.68-1.34,3.12-.87.47-2.25.71-4.07.71,0-1.22.47-2.53,1.42-3.99s2.01-2.64,3.12-3.55c.36.63.59,1.22.71,1.7ZM360.68,118.19c0-.39.12-.83.35-1.18.2-.39.55-.59,1.03-.59.32,0,.55.04.75.08-.28.99-.91,1.89-1.89,2.64l-.24-.95ZM361.11,134.77c.63-.47,1.66-.67,3.08-.67l1.26.08c-.91,1.14-1.78,2.01-2.57,2.61-.83.59-1.74.91-2.72.91,0-1.5.32-2.45.95-2.92ZM365.46,164.53c0,.47-.04.87-.16,1.22-.08.36-.47.51-1.11.51.08-.12.16-.55.32-1.26.16-.71.47-1.14.95-1.38v.91ZM365.77,159.24c-.36.75-1.07,1.3-2.21,1.74h2.13c0,.99-.63,2.13-1.82,3.39s-2.17,1.89-2.96,1.89c-.16-.04-.59-.47-1.38-1.26.51-.36.95-.91,1.38-1.7.43-.75.79-1.58,1.14-2.45.71-1.62,1.38-2.8,1.97-3.63.59-.83,1.34-1.22,2.29-1.22,0,1.42-.2,2.49-.55,3.24ZM364.94,153.08c-.59.55-1.66.79-3.28.79v-.63l3.16-3.39h.95c0,1.66-.28,2.72-.83,3.24ZM365.46,153.79c-.2.91-.87,1.86-1.93,2.84-1.11.99-1.74,1.58-1.86,1.82l-.12-1.38c0-.79.16-1.38.47-1.74.32-.39.87-.71,1.7-.95.83-.28,1.38-.47,1.74-.59ZM365.46,146.57c0,.16-.4.39-1.22.75-.79.36-1.5.51-2.17.51.08-.04.55-.79,1.38-2.25.87-1.46,1.54-2.17,2.01-2.17v3.16ZM363.88,149.21h.32c-.47.71-1.34,1.34-2.53,1.93-.16-.16-.24-.32-.24-.55,0-.63.24-1.03.63-1.14.43-.16,1.03-.24,1.82-.24ZM366.76,140.13l-5.09,5.17c-.59,0-.87-.39-.87-1.14l.12-.75c0-.99.28-1.74.79-2.25.51-.47,1.34-.83,2.49-1.11,1.14-.24,1.97-.43,2.57-.59v.67ZM362.06,139.46l4.15-3.91h.43c0,.24.08.55.24.95.2.43.36.79.51,1.07-2.57,1.3-4.34,1.89-5.33,1.89ZM367.23,105.87c-2.25,1.42-3.95,2.17-5.17,2.17-.63,0-1.07-.2-1.3-.55-.24-.36-.43-1.03-.59-2.09.43-.32.99-.75,1.66-1.46.67-.63.99-1.03.99-1.11,0-.12-.04-.24-.08-.32-.08-.04-.12-.16-.12-.32h-2.01c0-1.07.79-1.7,2.45-1.89,1.62-.2,3.71-.32,6.36-.32v.83c-.36.24-1.03.63-1.93,1.18-.91.55-1.86,1.18-2.84,1.86-.99.67-1.86,1.42-2.57,2.25h.75c2.05-1.18,3.79-2.13,5.21-2.84,1.38-.71,2.72-1.07,4.03-1.07-1.03.99-2.6,2.21-4.82,3.67ZM371.77,141.99c-1.46-.04-2.68-.28-3.67-.71,0-.91.47-1.54,1.38-1.86.91-.32,1.97-.55,3.2-.67.83,0,1.26.24,1.26.71l-1.26.67,2.01,1.89c-.51,0-1.5,0-2.92-.04ZM378.92,142.15c-.63,0-1.11-.08-1.38-.16-.28-.12-.59-.36-.95-.71.43,0,1.03.08,1.82.16.75.12,1.22.32,1.38.59l-.87.12ZM400.67,132.71c-1.03,1.46-2.17,2.76-3.47,3.87-1.3,1.11-2.29,1.62-2.92,1.62l-3.28-.08c-.43.12-.91.36-1.5.63-.55.28-.95.51-1.14.71h3.59c0,.95-1.18,1.42-3.51,1.42,0,0-.71-.08-2.09-.24-1.5-.16-2.25-.43-2.25-.83,0-.16.12-.28.36-.36-.95-.2-1.86-.36-2.76-.47-.91-.08-1.58-.16-1.9-.24h-.43l1.14,1.38h-4.54c-.36,0-.59-.24-.75-.71-.12-.43-.2-.83-.2-1.11,1.26,0,3.71-.28,7.3-.83,3.59-.59,6.87-1.22,9.79-1.97,2.92-.75,4.38-1.42,4.38-2.05h-.71c0-1.5.67-2.64,1.97-3.51,1.34-.83,2.84-1.26,4.46-1.26,0,1.18-.51,2.53-1.54,4.03ZM403.47,125.77c-.39,1.22-.87,1.86-1.34,1.86h-4.58v-1.26c0-.28.75-.83,2.21-1.58,1.5-.79,2.68-1.34,3.51-1.7h.83c0,.55-.2,1.46-.63,2.68ZM403.27,121.15c-.99.32-2.37.43-4.14.43,0-1.07.39-2.05,1.18-3,.79-.99,1.74-1.46,2.84-1.46.59,0,.99.16,1.22.43.24.28.39.79.39,1.5,0,1.11-.51,1.82-1.5,2.09Z"/>
    <path class="cls-1" d="M463.75,159.83c-1.7-3.75-2.96-6.67-3.75-8.8-.83-2.13-1.34-4.22-1.54-6.36-.28-2.53-.59-4.18-.91-4.97-.32-.79-.71-1.38-1.22-1.82-.63-.47-1.22-1.26-1.78-2.33-.67-1.26-1.18-3.36-1.62-6.24l-.39-2.33c0-.28-.43-1.07-1.3-2.33-.83-1.14-1.26-1.86-1.26-2.21,0-.24.08-.47.24-.75.12-.28.28-.51.39-.63h-1.38c0-.71-.24-1.5-.71-2.33-.43-.99-.67-1.74-.67-2.25.08-.04.2-.16.36-.32.12-.12.28-.2.39-.2-.55-.43-.99-1.03-1.3-1.86-.32-.83-.63-1.82-.91-3-.28-1.14-.55-1.97-.79-2.57-.24-.55-.59-.83-1.03-.83l.12-.95-1.26-2.57c-.79-2.41-1.54-4.03-2.21-4.86-.71-.87-1.7-1.34-2.92-1.5-1.26-.12-3.71-.2-7.38-.2-.71.55-1.7,2.96-3,7.18-1.3,4.26-1.97,6.95-1.97,8.05-.75,0-1.42.47-1.89,1.38-.51.91-.87,2.05-1.07,3.43-.2,1.38-.39,2.33-.51,2.8l-.55.55c-.4,1.7-.99,3.36-1.7,5.01-.71,1.66-1.14,2.76-1.38,3.36-.99,2.25-1.7,4.07-2.21,5.41-.91,2.37-1.89,5.8-2.96,10.26-.2.75-.63,2.21-1.22,4.34-.59,2.09-1.18,4.03-1.74,5.72l-.95,2.33c-.99,2.45-1.74,4.46-2.25,5.96-.47,1.54-.71,2.88-.71,4.07,1.54.59,2.76.95,3.71,1.14.91.16,1.97.24,3.28.24.91,0,1.54-.39,1.93-1.14.39-.79.71-1.89.91-3.39.16-1.14.36-2.05.63-2.76,1.42-3.24,2.37-5.57,2.88-6.91.47-1.38,1.07-3.43,1.78-6.12.51,0,2.88.12,7.11.32,2.13.24,4.14.32,6.16.32.91,0,1.7,0,2.37-.08.67-.08,1.26-.16,1.74-.24,1.26-.2,2.61-.32,4.03-.32,1.22,0,2.37.75,3.55,2.25,1.18,1.46,2.13,3.24,2.92,5.29.75,2.05,1.22,3.2,1.38,3.47.2.59.39,1.14.55,1.66l.59,1.54c.59,1.74,1.07,3.08,1.42,3.95.39.91.79,1.34,1.14,1.34.28,0,.75-.12,1.42-.32.67-.24,1.18-.32,1.54-.32.75,0,1.66.24,2.64.75.12.04.47.2,1.07.39.55.24,1.14.32,1.78.32,1.14,0,2.01-.12,2.6-.39.59-.32.91-.87.91-1.7-.95-2.33-1.93-4.66-3.08-6.99ZM444.05,111.95c.2,0,.67.91,1.42,2.76.75,1.82,1.11,2.88,1.11,3.16l-2.53,2.64c.36-.36.75-.67,1.14-.95.43-.28.79-.43,1.07-.51.79,0,1.26.43,1.46,1.38.16.91.24,2.01.24,3.28,0,2.17-1.3,4.38-3.91,6.55-.51-.47-.75-1.18-.75-2.13v-.63c0-.67.16-1.14.47-1.34.32-.24.83-.47,1.5-.71s1.11-.59,1.3-.99c-.63,0-1.42.12-2.41.39-.28.08-.59.16-.91.24-.32.08-.75.08-1.22.08,0-.39.12-.99.36-1.7.28-.67.39-1.3.39-1.78-.91.55-1.5.83-1.7.83-.71,0-1.07-.75-1.07-2.33,0-.36.04-.71.12-1.07.04-.32.28-.55.63-.63-.43-.04-.87-.24-1.34-.55-.43-.36-.67-.67-.67-1.03l.08-.43,4.58-4.54h.63ZM443.54,138.63c-1.42,0-3.55.16-6.36.43-.71.08-1.62.12-2.64.2-1.07.08-2.29.12-3.63.12-2.61,0-3.91-.51-3.91-1.58l.12-.32c1.89-2.84,3.55-5.96,4.89-9.39,1.38-3.43,2.37-6.83,2.92-10.22l5.09,9.87c0,.55.2,1.34.63,2.37.43,1.03.71,1.7.87,1.97,1.34,3.08,2.01,5.29,2.01,6.55ZM440.97,113.02c-1.42,1.54-2.37,2.33-2.84,2.33-.28,0-.67-.36-1.11-1.11-.47-.75-.71-1.3-.71-1.66,1.54-1.26,3.91-1.89,7.11-1.89-.79.55-1.58,1.34-2.45,2.33ZM429.01,115.98c-.55,0-.95-.12-1.11-.32-.2-.24-.28-.55-.28-1.07,0-1.34.24-2.29.71-2.92.43-.59,1.14-1.14,2.17-1.62.39-.24.83-.47,1.3-.79.47-.32.83-.75,1.11-1.22h-2.64c.36-.24.63-.67.79-1.38.2-.71.32-1.46.39-2.21.2-1.34.43-2.37.71-3.08.32-.71.75-1.07,1.38-1.07.43,0,1.14.24,2.09.67.95.47,1.54.71,1.74.71l1.26-.12c0,.08.71.79,2.05,2.13,1.38,1.34,2.09,3.2,2.09,5.61l-7.86,2.64c-.83,1.7-2.05,3.2-3.59,4.46-1.54,1.26-3.2,2.13-4.97,2.64l-.12-.75c0-1.54.95-2.33,2.76-2.33ZM424,123.59c.51-.36,1.34-.63,2.49-.83.91-.16,1.62-.32,2.09-.55.51-.2.87-.59,1.07-1.14-.47,0-1.14.12-2.01.36-.83.24-1.54.36-2.13.36,0-.39.95-1.3,2.84-2.64,1.86-1.3,3-2.01,3.43-2.01h.75c0,2.76-2.92,5.84-8.72,9.24-.04,0-.16-.08-.36-.2-.16-.16-.28-.32-.28-.43,0-1.07.28-1.78.83-2.13ZM423.6,127.94c.51-.43,1.07-.83,1.7-1.26,1.7-1.14,2.92-2.17,3.71-3.08h.63c-.47,2.33-1.14,3.83-2.01,4.5-.83.67-2.45,1.03-4.78,1.03,0-.36.28-.75.75-1.18ZM420.21,133.34c.24-.71.47-1.38.79-2.05.32-.67.83-1.03,1.46-1.03h4.66c-1.07.79-2.41,1.66-3.99,2.61-1.58.95-2.68,1.62-3.32,1.97.04-.32.2-.79.39-1.5ZM426.48,132.59c0,.63-.43,1.22-1.22,1.82-.83.55-1.58.83-2.29.83,0-.55.2-1.03.51-1.42.36-.39.87-.71,1.5-.99.63-.32,1.11-.51,1.38-.67l.12.43ZM413.5,161.25c-.95,1.03-1.46,1.62-1.54,1.74h.87c0,.24-.12.59-.36,1.11-.2.55-.47.83-.83.83-.43,0-.67-.16-.79-.43-.12-.28-.16-.67-.16-1.18,0-1.07.36-2.13,1.07-3.28.71-1.14,1.54-1.7,2.53-1.7l.95.12c-.2.83-.79,1.78-1.74,2.8ZM416.89,152.77c-.91.75-1.66,1.3-2.29,1.66l-.12-.87c0-.2.32-.67.91-1.34.59-.71,1.22-1.07,1.86-1.07l1.38.08c-.28.32-.87.79-1.74,1.54ZM415.98,149.85c1.54-1.74,2.84-2.64,3.83-2.64h.71c-1.26,1.78-2.76,2.64-4.54,2.64ZM418.27,146.41c-.95.47-1.5.75-1.66.79l-.12-.63c0-.75.24-1.38.63-1.89.43-.47,1.03-.75,1.82-.75.91,0,1.46.28,1.58.75-.55.71-1.3,1.3-2.25,1.74ZM421.9,142.66h-2.76l2.76-2.53v2.53ZM419.97,140.13c-.99.55-1.66.99-2.09,1.26l-.08-1.26c0-1.58.43-2.61,1.3-3.16.91-.51,2.25-.79,4.07-.79h.63c-.28.79-.75,1.5-1.42,2.13-.67.63-1.46,1.22-2.41,1.82ZM427.35,145.5c-1.07.32-2.17.43-3.32.43h-.63c-.51,0-.83-.2-.95-.63.63-.47,1.62-1.07,2.96-1.74s2.09-1.03,2.33-1.03c.36,0,.63.12.91.39.24.24.36.55.36.99,0,.79-.55,1.3-1.66,1.58ZM431.02,143.77c.55-.43,1.18-.63,1.89-.59l1.38.24c-1.34,1.46-2.72,2.21-4.15,2.21,0-.79.32-1.38.87-1.86ZM440.38,145.74c-1.22.43-2.64.63-4.26.63l-2.76-.12c0-.71.32-1.22.91-1.58.59-.36,1.46-.79,2.57-1.26v1.26c.16-.28.63-.79,1.38-1.54.79-.75,1.38-1.11,1.82-1.11s1.03.12,1.86.36c.79.28,1.3.59,1.54,1.03-.79,1.11-1.78,1.89-3.04,2.33ZM443.18,145.74c0-1.07.55-1.62,1.62-1.7-.16,1.14-.67,1.7-1.62,1.7ZM446.06,130.27c1.18-1.97,2.05-3.28,2.53-3.91.71,0,1.26.55,1.62,1.7.32,1.11.51,2.17.51,3.16,0,1.07-.36,2.05-1.07,2.96-.71.95-1.58,1.38-2.64,1.38-.16,0-.36-.2-.63-.63-.28-.39-.43-.79-.43-1.14l.12-.24,3.91-2.01c-.36,0-.99.12-1.89.32-.91.24-1.58.32-2.01.32-.28,0-.51-.16-.63-.47-.16-.32-.24-.47-.24-.47,0-.08.32-.39.87-.95ZM448.71,147.67c-.28-.16-.55-.51-.87-1.11,2.76-1.11,4.54-2.17,5.33-3.16-.71,0-1.78.32-3.2.95-1.42.71-2.53,1.07-3.39,1.07l-1.26-.12c.63-1.11,1.7-2.53,3.2-4.18,1.46-1.66,2.33-2.64,2.64-3v-.63h-3.32c.36-.95.95-1.7,1.7-2.33.79-.63,1.62-.99,2.45-.99.16.51.4,1.3.75,2.41.36,1.11.63,2.13.83,3.12.24.99.32,2.13.32,3.39,0,1.18-.36,2.29-1.03,3.32-.71,1.03-1.66,1.54-2.88,1.54-.55,0-.99-.08-1.26-.28ZM447.84,140.13c0-.87.51-1.26,1.5-1.26l-1.5,1.26ZM451.15,152.41c0-.51.12-.87.39-1.11.32-.28.79-.51,1.5-.79.99-.32,1.66-.71,2.01-1.3-.36.08-.91.16-1.7.28-.79.12-1.38.24-1.82.36-.28,0-.47-.08-.63-.32-.12-.2-.24-.32-.32-.32.28-.55,1.07-1.22,2.29-2.05,1.22-.79,1.89-1.26,1.97-1.3.63,0,.95.83.95,2.53v.51c0,.79-.43,1.82-1.22,3.08-.83,1.26-1.58,1.89-2.29,1.89-.79,0-1.14-.47-1.14-1.46ZM453.17,155.81c.2-.36.51-.87.95-1.54.43-.67.91-1.38,1.46-2.05.59-.71.99-1.07,1.3-1.07.63,0,.95.79.95,2.41,0,.71-.59,1.26-1.7,1.66-1.14.39-2.13.59-2.96.59ZM455.5,159.71c-.36,0-.71-.24-1.07-.75-.36-.47-.55-.91-.55-1.26,0-.63.67-1.14,1.97-1.58,1.3-.43,2.37-.63,3.24-.63v1.07l-3.39,3.04-.2.12ZM460.35,164.25c-2.25,0-3.51-.39-3.79-1.26l2.53-2.64c-.99.51-1.93.75-2.88.75,0-.43.24-.87.67-1.34.4-.43.95-.87,1.62-1.26.67-.39,1.07-.63,1.22-.79,1.42,2.41,2.13,4.18,2.13,5.41,0,.79-.51,1.14-1.5,1.14Z"/>
  </g>
  <path class="cls-1" d="M329.93,9.38c-.06.13-.11.27-.11.41.02.39.49.63.87.55.38-.07.69-.36.97-.63.91-.87,1.81-1.73,2.72-2.6.77-.73,1.58-1.49,2.59-1.81.27-.56-.07-1.26-.6-1.58-1.83-1.11-2.18.61-3.16,1.76-1.1,1.29-2.57,2.3-3.28,3.88Z"/>
  <path class="cls-1" d="M431.04,106.09c-.06.13-.11.27-.11.41.02.39.49.63.87.55.38-.07.69-.36.97-.63.91-.87,1.81-1.73,2.72-2.6.77-.73,1.58-1.49,2.59-1.81.27-.56-.07-1.26-.6-1.58-1.83-1.11-2.18.61-3.16,1.76-1.1,1.29-2.57,2.3-3.28,3.88Z"/>
  <path class="cls-1" d="M436.81,108.19c-.38.44-.77.89-.99,1.43-.22.54-.25,1.2.1,1.67.48.17.95-.23,1.3-.6.88-.93,1.76-1.87,2.64-2.8.36-.38.72-.77,1.01-1.21.51-.78,2.05-4.76-.13-3.67-.73.37-1.37,1.9-1.85,2.56-.66.9-1.35,1.78-2.07,2.63Z"/>
  <path class="cls-1" d="M381.33,103.93c-.38.44-.77.89-.99,1.43s-.25,1.2.1,1.67c.48.17.95-.23,1.3-.6.88-.93,1.76-1.87,2.64-2.8.36-.38.72-.77,1.01-1.21.51-.78,2.05-4.76-.13-3.67-.73.37-1.37,1.9-1.85,2.56-.66.9-1.35,1.78-2.07,2.63Z"/>
  <path class="cls-1" d="M232.21,105.21c-.38.44-.77.89-.99,1.43-.22.54-.25,1.2.1,1.67.48.17.95-.23,1.3-.6.88-.93,1.76-1.87,2.64-2.8.36-.38.72-.77,1.01-1.21.51-.78,2.05-4.76-.13-3.67-.73.37-1.37,1.9-1.85,2.56-.66.9-1.35,1.78-2.07,2.63Z"/>
  <path class="cls-1" d="M236.26,109.95c-.38.44-.77.89-.99,1.43-.22.54-.25,1.2.1,1.67.48.17.95-.23,1.3-.6.88-.93,1.76-1.87,2.64-2.8.36-.38.72-.77,1.01-1.21.51-.78,2.05-4.76-.13-3.67-.73.37-1.37,1.9-1.85,2.56-.66.9-1.35,1.78-2.07,2.63Z"/>
  <path class="cls-1" d="M336.45,12.8c-.38.44-.77.89-.99,1.43-.22.54-.25,1.2.1,1.67.48.17.95-.23,1.3-.6.88-.93,1.76-1.87,2.64-2.8.36-.38.72-.77,1.01-1.21.51-.78,2.05-4.76-.13-3.67-.73.37-1.37,1.9-1.85,2.56-.66.9-1.35,1.78-2.07,2.63Z"/>
  <path class="cls-1" d="M233.73,106.68c-.73.47-1.52.85-2.13,1.46-.14.14-.27.31-.28.5-.01.34.39.57.73.53s.62-.28.89-.49c1.37-1.07,2.96-1.83,4.53-2.59.77-.37,1.54-.74,2.31-1.11.19-.09.38-.18.52-.33.17-.17.26-.41.29-.64.38-2.42-2.23-.96-3.09-.33-1.3.94-2.41,2.12-3.76,2.99Z"/>
  <path class="cls-1" d="M434.07,106.17c-.73.47-1.52.85-2.13,1.46-.14.14-.27.31-.28.5-.01.34.39.57.73.53s.62-.28.89-.49c1.37-1.07,2.96-1.83,4.53-2.59.77-.37,1.54-.74,2.31-1.11.19-.09.38-.18.52-.33.17-.17.26-.41.29-.64.38-2.42-2.23-.96-3.09-.33-1.3.94-2.41,2.12-3.76,2.99Z"/>
  <path class="cls-1" d="M333.06,10.48c-.73.47-1.52.85-2.13,1.46-.14.14-.27.31-.28.5-.01.34.39.57.73.53s.62-.28.89-.49c1.37-1.07,2.96-1.83,4.53-2.59.77-.37,1.54-.74,2.31-1.11.19-.09.38-.18.52-.33.17-.17.26-.41.29-.64.38-2.42-2.23-.96-3.09-.33-1.3.94-2.41,2.12-3.76,2.99Z"/>
</svg>